<?xml version="1.0" encoding="utf-8"?><svg version="1.1" preserveAspectRatio="xMidYMid" xml:space="preserve" width="811.4109000000001pt" height="661.74588pt" viewBox="15.0137 36.53352 811.4109000000001 661.74588" xmlns="http://www.w3.org/2000/svg" xmlns:xlink="http://www.w3.org/1999/xlink"><g transform="matrix(1 0 0 -1 0 825)"><g stroke="#000000" fill="none" fill-rule="evenodd" stroke-width="1" stroke-linecap="round" stroke-linejoin="round" stroke-miterlimit="3" letter-spacing="normal" font-weight="normal" font-style="normal" baseline-shift="0"><g transform="matrix(0.75 0 0 0.75 0 825.099976)"><g transform="matrix(0.958904 0 0 -0.95986 0 0)" font-family="SegoeUIUnicode" font-size="10"><path fill="#FFFFFF" d="M541 186C541 183 541 181 538 182C529 183 520 183 445 182C415 181 384 181 352 181C349 183 348 183 347 184C347 188 347 193 347 232C347 248 348 265 349 282C348 283 349 286 352 285C361 284 370 284 446 285C477 286 508 286 540 284C541 285 541 283 541 282C541 278 541 273 541 234C541 219 541 203 541 186 Z" /><text transform="matrix(1 0 0 1 413 188)" fill="#000000" font-style="italic" stroke="none"><tspan dx="0 " x="0" y="10">«Objecttype»</tspan></text><text transform="matrix(1 0 0 1 365 201)" fill="#000000" font-weight="bold" font-style="italic" stroke="none"><tspan dx="0 " x="0" y="10">Model::GeomorfologischeKaart</tspan></text><path d="M348 219C357 220 367 220 443 219C475 218 507 218 540 218" /><text transform="matrix(1 0 0 1 361 226)" fill="#000000" font-style="italic" stroke="none"><tspan dx="0 " x="0" y="10">«Attribuutsoort»</tspan></text><text transform="matrix(1 0 0 1 353 239)" fill="#3C3C3C" font-style="italic" stroke="none"><tspan dx="0 " x="0" y="10">+ </tspan></text><text transform="matrix(1 0 0 1 370 239)" fill="#3C3C3C" font-style="italic" stroke="none"><tspan dx="0 " x="0" y="10">id: Identifier {id}</tspan></text><text transform="matrix(1 0 0 1 353 252)" fill="#3C3C3C" font-style="italic" stroke="none"><tspan dx="0 " x="0" y="10">+ </tspan></text><text transform="matrix(1 0 0 1 370 252)" fill="#3C3C3C" font-style="italic" stroke="none"><tspan dx="0 " x="0" y="10">schaal: int</tspan></text><text transform="matrix(1 0 0 1 353 265)" fill="#3C3C3C" font-style="italic" stroke="none"><tspan dx="0 " x="0" y="10">+ </tspan></text><text transform="matrix(1 0 0 1 370 265)" fill="#3C3C3C" font-style="italic" stroke="none"><tspan dx="0 " x="0" y="10">extent: EX_Extent</tspan></text><path fill="#FFFFFF" d="M551 365C552 363 551 362 549 363C538 365 526 365 434 363C396 362 358 362 318 363C315 364 314 365 316 365C316 369 316 374 316 411C316 426 316 442 316 458C315 457 316 459 317 460C328 462 340 462 432 460C470 459 509 458 549 458C551 458 550 457 552 456C552 452 552 447 552 411C552 396 552 381 551 365 Z" /><text transform="matrix(1 0 0 1 402 368)" fill="#000000" font-style="italic" stroke="none"><tspan dx="0 " x="0" y="10">«Objecttype»</tspan></text><text transform="matrix(1 0 0 1 346 381)" fill="#000000" font-weight="bold" font-style="italic" stroke="none"><tspan dx="0 " x="0" y="10">Model::GeomorfologischKaartvlak</tspan></text><path d="M316 397C327 399 339 399 433 397C471 396 510 396 551 398" /><text transform="matrix(1 0 0 1 320 402)" fill="#3C3C3C" font-style="italic" stroke="none"><tspan dx="0 " x="0" y="10">+ </tspan></text><text transform="matrix(1 0 0 1 337 402)" fill="#3C3C3C" font-style="italic" stroke="none"><tspan dx="0 " x="0" y="10">id: Identifier {id}</tspan></text><text transform="matrix(1 0 0 1 320 415)" fill="#3C3C3C" font-style="italic" stroke="none"><tspan dx="0 " x="0" y="10">+ </tspan></text><text transform="matrix(1 0 0 1 337 415)" fill="#3C3C3C" font-style="italic" stroke="none"><tspan dx="0 " x="0" y="10">geometrie: GM_Object</tspan></text><text transform="matrix(1 0 0 1 320 428)" fill="#3C3C3C" font-style="italic" stroke="none"><tspan dx="0 " x="0" y="10">+ </tspan></text><text transform="matrix(1 0 0 1 337 428)" fill="#3C3C3C" font-style="italic" stroke="none"><tspan dx="0 " x="0" y="10">ahnDatum: date</tspan></text><text transform="matrix(1 0 0 1 320 441)" fill="#3C3C3C" font-style="italic" stroke="none"><tspan dx="0 " x="0" y="10">+ </tspan></text><text transform="matrix(1 0 0 1 337 441)" fill="#3C3C3C" font-style="italic" stroke="none"><tspan dx="0 " x="0" y="10">legendaEenheid: LandvormSubgroep</tspan></text><path fill="#FFFFFF" d="M992 357C992 355 991 356 991 355C977 353 962 353 842 355C793 357 743 357 692 355C691 355 690 357 690 358C690 362 690 367 689 404C689 419 689 434 688 450C688 450 691 453 692 453C706 451 721 451 840 453C889 455 938 455 989 452C993 451 992 450 993 451C993 447 993 442 993 405C993 390 993 374 992 357 Z" /><text transform="matrix(1 0 0 1 810 361)" fill="#000000" font-style="italic" stroke="none"><tspan dx="0 " x="0" y="10">«Objecttype»</tspan></text><text transform="matrix(1 0 0 1 728 374)" fill="#000000" font-weight="bold" font-style="italic" stroke="none"><tspan dx="0 " x="0" y="10">Model::GeomorfologischeKaartvlakCollectie</tspan></text><path d="M689 392C841 392 993 392 841 392C891 394 941 394 993 392" /><text transform="matrix(1 0 0 1 694 395)" fill="#3C3C3C" font-style="italic" stroke="none"><tspan dx="0 " x="0" y="10">+ </tspan></text><text transform="matrix(1 0 0 1 711 395)" fill="#3C3C3C" font-style="italic" stroke="none"><tspan dx="0 " x="0" y="10">id: Identifier {id}</tspan></text><text transform="matrix(1 0 0 1 694 408)" fill="#3C3C3C" font-style="italic" stroke="none"><tspan dx="0 " x="0" y="10">+ </tspan></text><text transform="matrix(1 0 0 1 711 408)" fill="#3C3C3C" font-style="italic" stroke="none"><tspan dx="0 " x="0" y="10">naam: string</tspan></text><text transform="matrix(1 0 0 1 694 421)" fill="#3C3C3C" font-style="italic" stroke="none"><tspan dx="0 " x="0" y="10">+ </tspan></text><text transform="matrix(1 0 0 1 711 421)" fill="#3C3C3C" font-style="italic" stroke="none"><tspan dx="0 " x="0" y="10">type: GeomorfologischeKaartvlakCollectieTypeWaarde</tspan></text><path stroke="#C0C0C0" fill="#FFFFFF" d="M537 70C536 69 536 68 535 69C526 68 516 68 437 69C405 70 373 70 339 69C336 69 336 69 337 70C337 72 337 74 337 94C337 102 337 111 336 120C337 120 336 123 337 123C346 124 356 124 436 123C468 122 501 122 535 122C537 121 537 122 537 119C537 117 537 115 537 95C537 87 537 79 537 70 Z" /><text transform="matrix(1 0 0 1 402 74)" fill="#000000" font-style="italic" stroke="none"><tspan dx="0 " x="0" y="10">«featureType»</tspan></text><text transform="matrix(1 0 0 1 354 87)" fill="#000000" font-weight="bold" font-style="italic" stroke="none"><tspan dx="0 " x="0" y="10">FeatureTypes::RegistratieObject</tspan></text><path stroke="#C0C0C0" fill="#FFFFFF" d="M912 64C911 65 910 62 908 64C896 62 883 62 782 63C741 64 699 64 656 62C654 63 652 65 653 65C653 67 653 70 653 92C653 100 653 109 652 119C654 119 654 120 654 121C666 119 679 119 781 121C823 122 865 122 909 122C909 120 912 121 911 119C911 117 911 114 911 92C911 83 911 74 912 64 Z" /><text transform="matrix(1 0 0 1 756 68)" fill="#000000" font-style="italic" stroke="none"><tspan dx="0 " x="0" y="10">«datatype»</tspan></text><text transform="matrix(1 0 0 1 673 81)" fill="#000000" font-weight="bold" font-style="italic" stroke="none"><tspan dx="0 " x="0" y="10">Citation and responsible party information::</tspan></text><text transform="matrix(1 0 0 1 755 93)" fill="#000000" font-weight="bold" font-style="italic" stroke="none"><tspan dx="0 " x="0" y="10">CI_Citation</tspan></text><path fill="#FBF9C6" d="M624 671C625 669 622 668 622 670C604 673 585 673 435 670C374 668 312 668 248 670C246 670 245 669 245 672C244 678 244 685 244 739C245 761 245 783 243 807C245 808 244 810 248 809C266 812 285 812 434 809C495 807 557 807 621 809C623 810 625 809 623 807C622 801 622 794 623 739C624 717 624 695 624 671 Z" /><text transform="matrix(1 0 0 1 407 675)" fill="#000000" font-style="italic" stroke="none"><tspan dx="0 " x="0" y="10">«Datatype»</tspan></text><text transform="matrix(1 0 0 1 374 688)" fill="#000000" font-weight="bold" font-style="italic" stroke="none"><tspan dx="0 " x="0" y="10">GeomorfologischeCode</tspan></text><path d="M243 705C434 705 625 705 434 705C497 707 560 707 625 705" /><text transform="matrix(1 0 0 1 249 709)" fill="#3C3C3C" font-style="italic" stroke="none"><tspan dx="0 " x="0" y="10">+ </tspan></text><text transform="matrix(1 0 0 1 266 709)" fill="#3C3C3C" font-style="italic" stroke="none"><tspan dx="0 " x="0" y="10">reliëf: ReliëfWaarde</tspan></text><text transform="matrix(1 0 0 1 249 722)" fill="#3C3C3C" font-style="italic" stroke="none"><tspan dx="0 " x="0" y="10">+ </tspan></text><text transform="matrix(1 0 0 1 266 722)" fill="#3C3C3C" font-style="italic" stroke="none"><tspan dx="0 " x="0" y="10">landvormSubgroep: LandvormSubgroepWaarde</tspan></text><text transform="matrix(1 0 0 1 249 735)" fill="#3C3C3C" font-style="italic" stroke="none"><tspan dx="0 " x="0" y="10">+ </tspan></text><text transform="matrix(1 0 0 1 266 735)" fill="#3C3C3C" font-style="italic" stroke="none"><tspan dx="0 " x="0" y="10">actiefVormingsproces: boolean</tspan></text><text transform="matrix(1 0 0 1 249 748)" fill="#3C3C3C" font-style="italic" stroke="none"><tspan dx="0 " x="0" y="10">+ </tspan></text><text transform="matrix(1 0 0 1 266 748)" fill="#3C3C3C" font-style="italic" stroke="none"><tspan dx="0 " x="0" y="10">toevoegingBovengrond: ToevoegingBovengrondWaarde</tspan></text><text transform="matrix(1 0 0 1 249 761)" fill="#3C3C3C" font-style="italic" stroke="none"><tspan dx="0 " x="0" y="10">+ </tspan></text><text transform="matrix(1 0 0 1 266 761)" fill="#3C3C3C" font-style="italic" stroke="none"><tspan dx="0 " x="0" y="10">toevoegingLokaleReliëfaspecten: ToevoegingLokaleReliëfaspectenWaarde</tspan></text><text transform="matrix(1 0 0 1 257 778)" fill="#000000" font-style="italic" stroke="none"><tspan dx="0 " x="0" y="10">«Voidable»</tspan></text><text transform="matrix(1 0 0 1 249 791)" fill="#3C3C3C" font-style="italic" stroke="none"><tspan dx="0 " x="0" y="10">+ </tspan></text><text transform="matrix(1 0 0 1 266 791)" fill="#3C3C3C" font-style="italic" stroke="none"><tspan dx="0 " x="0" y="10">actieveVormbepalendeFactoren: ActieveVormbepalendeFactorenWaarde</tspan></text><text transform="matrix(1 0 0 1 406 815)" fill="#000000" font-style="italic" stroke="none"><tspan dx="0 " x="0" y="10">(from Model)</tspan></text><path stroke="#C0C0C0" fill="#D7FCCE" d="M159 891C159 892 159 890 156 889C151 888 145 888 97 889C78 889 58 889 37 890C35 891 32 891 33 892C33 894 33 897 33 919C33 927 33 936 33 946C33 948 35 949 35 948C41 947 47 947 95 949C115 949 135 949 156 950C159 948 161 948 161 947C161 945 161 942 160 919C160 910 160 901 159 891 Z" /><text transform="matrix(1 0 0 1 48 896)" fill="#000000" font-style="italic" stroke="none"><tspan dx="0 " x="0" y="10">«enumeration,Cod...</tspan></text><text transform="matrix(1 0 0 1 44 909)" fill="#000000" font-weight="bold" font-style="italic" stroke="none"><tspan dx="0 " x="0" y="10">Model::ReliëfWaarde</tspan></text><path stroke="#C0C0C0" fill="#D7FCCE" d="M1008 898C1008 896 1009 896 1007 895C1002 894 996 894 949 895C930 895 911 895 890 895C889 897 890 896 890 899C890 901 890 904 890 926C890 934 890 943 889 953C888 953 891 956 891 955C896 956 902 956 949 955C968 955 987 955 1008 956C1008 955 1008 954 1010 954C1010 952 1010 949 1009 926C1009 917 1009 908 1008 898 Z" /><text transform="matrix(1 0 0 1 904 902)" fill="#000000" font-style="italic" stroke="none"><tspan dx="0 " x="0" y="10">«enumeration,Co...</tspan></text><text transform="matrix(1 0 0 1 930 915)" fill="#000000" font-weight="bold" font-style="italic" stroke="none"><tspan dx="0 " x="0" y="10">Model::</tspan></text><text transform="matrix(1 0 0 1 889 927)" fill="#000000" font-weight="bold" font-style="italic" stroke="none"><tspan dx="0 " x="0" y="10">LandvormgroepWaarde</tspan></text><path stroke="#C0C0C0" fill="#D7FCCE" d="M1137 896C1138 896 1137 896 1135 894C1131 894 1127 894 1093 894C1080 894 1066 894 1051 894C1048 895 1047 897 1047 897C1047 899 1047 902 1047 924C1047 933 1047 942 1047 952C1049 952 1048 953 1050 955C1054 955 1058 955 1092 954C1105 954 1119 954 1134 953C1135 953 1138 953 1136 952C1136 950 1136 947 1136 925C1136 916 1136 906 1137 896 Z" /><text transform="matrix(1 0 0 1 1061 901)" fill="#000000" font-style="italic" stroke="none"><tspan dx="0 " x="0" y="10">«enumerati...</tspan></text><text transform="matrix(1 0 0 1 1074 914)" fill="#000000" font-weight="bold" font-style="italic" stroke="none"><tspan dx="0 " x="0" y="10">Model::</tspan></text><text transform="matrix(1 0 0 1 1054 926)" fill="#000000" font-weight="bold" font-style="italic" stroke="none"><tspan dx="0 " x="0" y="10">GeneseWaarde</tspan></text><path stroke="#C0C0C0" fill="#D7FCCE" d="M596 894C597 894 594 894 594 894C587 893 579 893 517 893C492 894 466 894 439 892C436 894 436 894 436 894C436 896 436 899 436 922C436 931 436 941 435 951C437 951 438 951 438 953C445 954 453 954 516 953C541 952 567 952 594 953C595 952 597 950 596 949C596 947 596 944 596 922C596 913 596 904 596 894 Z" /><text transform="matrix(1 0 0 1 460 899)" fill="#000000" font-style="italic" stroke="none"><tspan dx="0 " x="0" y="10">«enumeration,Codelist»</tspan></text><text transform="matrix(1 0 0 1 498 912)" fill="#000000" font-weight="bold" font-style="italic" stroke="none"><tspan dx="0 " x="0" y="10">Model::</tspan></text><text transform="matrix(1 0 0 1 436 924)" fill="#000000" font-weight="bold" font-style="italic" stroke="none"><tspan dx="0 " x="0" y="10">ToevoegingBovengrondWaarde</tspan></text><path stroke="#C0C0C0" fill="#D7FCCE" d="M399 892C399 891 400 891 398 890C388 891 378 891 298 890C265 889 231 889 196 891C194 890 194 891 193 891C193 893 193 896 193 919C193 928 193 938 193 948C193 948 195 949 194 949C204 950 214 950 296 949C329 948 363 948 398 949C398 950 399 948 401 948C401 946 401 943 400 920C400 911 400 902 399 892 Z" /><text transform="matrix(1 0 0 1 240 896)" fill="#000000" font-style="italic" stroke="none"><tspan dx="0 " x="0" y="10">«enumeration,Codelist»</tspan></text><text transform="matrix(1 0 0 1 278 909)" fill="#000000" font-weight="bold" font-style="italic" stroke="none"><tspan dx="0 " x="0" y="10">Model::</tspan></text><text transform="matrix(1 0 0 1 193 921)" fill="#000000" font-weight="bold" font-style="italic" stroke="none"><tspan dx="0 " x="0" y="10">ToevoegingLokaleReliëfaspectenWaarde</tspan></text><path stroke="#C0C0C0" fill="#D7FCCE" d="M833 903C832 899 830 899 829 898C820 899 810 899 731 898C699 897 667 897 633 898C632 900 630 899 629 901C629 903 629 906 630 929C630 938 630 947 631 957C631 957 631 957 631 958C641 957 651 957 731 958C764 959 797 959 831 957C830 959 831 957 832 957C832 955 832 952 832 930C832 922 832 913 833 903 Z" /><text transform="matrix(1 0 0 1 675 905)" fill="#000000" font-style="italic" stroke="none"><tspan dx="0 " x="0" y="10">«enumeration,Codelist»</tspan></text><text transform="matrix(1 0 0 1 712 918)" fill="#000000" font-weight="bold" font-style="italic" stroke="none"><tspan dx="0 " x="0" y="10">Model::</tspan></text><text transform="matrix(1 0 0 1 630 930)" fill="#000000" font-weight="bold" font-style="italic" stroke="none"><tspan dx="0 " x="0" y="10">ActieveVormbepalendeFactorenWaarde</tspan></text><path fill="#FBF9C6" d="M967 700C967 700 967 699 965 697C955 695 944 695 860 698C826 699 791 699 755 699C756 697 753 700 753 700C753 704 753 708 753 740C753 753 753 766 753 780C754 780 755 782 755 781C765 779 775 779 859 782C893 783 928 783 964 783C965 783 966 780 968 781C968 777 968 773 968 741C968 728 968 714 967 700 Z" /><text transform="matrix(1 0 0 1 834 704)" fill="#000000" font-style="italic" stroke="none"><tspan dx="0 " x="0" y="10">«Datatype»</tspan></text><text transform="matrix(1 0 0 1 810 717)" fill="#000000" font-weight="bold" font-style="italic" stroke="none"><tspan dx="0 " x="0" y="10">LandvormSubgroep</tspan></text><path d="M754 735C764 733 775 733 860 735C894 736 929 736 966 734" /><text transform="matrix(1 0 0 1 759 738)" fill="#3C3C3C" font-style="italic" stroke="none"><tspan dx="0 " x="0" y="10">+ </tspan></text><text transform="matrix(1 0 0 1 776 738)" fill="#3C3C3C" font-style="italic" stroke="none"><tspan dx="0 " x="0" y="10">landvormgroep: LandvormgroepWaarde</tspan></text><text transform="matrix(1 0 0 1 759 751)" fill="#3C3C3C" font-style="italic" stroke="none"><tspan dx="0 " x="0" y="10">+ </tspan></text><text transform="matrix(1 0 0 1 776 751)" fill="#3C3C3C" font-style="italic" stroke="none"><tspan dx="0 " x="0" y="10">genese: GeneseWaarde</tspan></text><text transform="matrix(1 0 0 1 759 764)" fill="#3C3C3C" font-style="italic" stroke="none"><tspan dx="0 " x="0" y="10">+ </tspan></text><text transform="matrix(1 0 0 1 776 764)" fill="#3C3C3C" font-style="italic" stroke="none"><tspan dx="0 " x="0" y="10">landvormSubgroepNummer: int</tspan></text><text transform="matrix(1 0 0 1 833 788)" fill="#000000" font-style="italic" stroke="none"><tspan dx="0 " x="0" y="10">(from Model)</tspan></text><path fill="#FFFFFF" d="M245 370C244 369 243 367 243 368C235 369 226 369 157 368C129 367 101 367 71 367C69 366 67 369 69 369C69 373 69 377 69 409C69 422 69 435 69 449C67 449 69 452 69 450C77 451 86 451 156 450C184 449 213 449 243 450C242 451 243 450 244 450C244 447 244 443 244 411C244 398 244 384 245 370 Z" /><text transform="matrix(1 0 0 1 125 373)" fill="#000000" font-style="italic" stroke="none"><tspan dx="0 " x="0" y="10">«Objecttype»</tspan></text><text transform="matrix(1 0 0 1 137 386)" fill="#000000" font-weight="bold" font-style="italic" stroke="none"><tspan dx="0 " x="0" y="10">Model::</tspan></text><text transform="matrix(1 0 0 1 68 398)" fill="#000000" font-weight="bold" font-style="italic" stroke="none"><tspan dx="0 " x="0" y="10">DijkenVanGeomorfologischBelang</tspan></text><path d="M68 414C76 415 85 415 155 414C184 413 213 413 243 414" /><text transform="matrix(1 0 0 1 73 419)" fill="#3C3C3C" font-style="italic" stroke="none"><tspan dx="0 " x="0" y="10">+ </tspan></text><text transform="matrix(1 0 0 1 90 419)" fill="#3C3C3C" font-style="italic" stroke="none"><tspan dx="0 " x="0" y="10">id: Identifier {id}</tspan></text><text transform="matrix(1 0 0 1 73 432)" fill="#3C3C3C" font-style="italic" stroke="none"><tspan dx="0 " x="0" y="10">+ </tspan></text><text transform="matrix(1 0 0 1 90 432)" fill="#3C3C3C" font-style="italic" stroke="none"><tspan dx="0 " x="0" y="10">geometrie: GM_Object</tspan></text><path fill="#FBF9C6" d="M500 543C501 540 498 541 497 540C491 539 485 539 434 540C414 540 393 540 371 540C369 539 369 541 370 541C370 543 370 546 369 569C369 578 369 588 368 598C368 598 369 598 373 599C379 600 385 600 434 599C454 599 474 599 496 599C497 598 500 599 500 596C500 594 500 591 500 570C500 562 500 553 500 543 Z" /><text transform="matrix(1 0 0 1 408 546)" fill="#000000" font-style="italic" stroke="none"><tspan dx="0 " x="0" y="10">«Datatype»</tspan></text><text transform="matrix(1 0 0 1 367 559)" fill="#000000" font-weight="bold" font-style="italic" stroke="none"><tspan dx="0 " x="0" y="10">GeomorfologischeEenheid</tspan></text><text transform="matrix(1 0 0 1 407 605)" fill="#000000" font-style="italic" stroke="none"><tspan dx="0 " x="0" y="10">(from Model)</tspan></text><path stroke="#C0C0C0" fill="#D7FCCE" d="M962 515C963 515 960 513 960 514C948 512 936 512 839 514C799 515 759 515 717 514C717 512 716 515 714 516C714 518 714 521 714 542C714 550 714 559 714 568C716 570 716 571 717 571C729 569 741 569 837 572C876 573 916 573 958 573C961 572 962 572 961 568C961 566 961 563 961 542C961 534 961 525 962 515 Z" /><text transform="matrix(1 0 0 1 782 519)" fill="#000000" font-style="italic" stroke="none"><tspan dx="0 " x="0" y="10">«enumeration,Codelist»</tspan></text><text transform="matrix(1 0 0 1 820 532)" fill="#000000" font-weight="bold" font-style="italic" stroke="none"><tspan dx="0 " x="0" y="10">Model::</tspan></text><text transform="matrix(1 0 0 1 714 544)" fill="#000000" font-weight="bold" font-style="italic" stroke="none"><tspan dx="0 " x="0" y="10">GeomorfologischeKaartvlakCollectieTypeWaarde</tspan></text><path stroke-width="2" d="M159 367C158 361 158 355 159 305C159 285 159 265 159 243M159 244C168 243 177 243 253 244C284 245 315 245 347 244" /><path fill="#000000" stroke-width="2" d="M338 250C339 250 340 249 349 243C348 243 347 242 337 238C337 238 336 239 328 245C329 245 330 246 338 250 Z" /><path stroke-width="2" d="M159 366C159 365 160 364 165 352M159 367C159 366 159 365 155 353M444 362C444 359 444 355 444 325C444 313 444 300 445 287" /><path fill="#000000" stroke-width="2" d="M452 296C452 296 451 295 444 287C444 287 444 288 439 296C439 297 440 298 445 307C445 306 446 305 452 296 Z" /><path stroke-width="2" d="M445 363C445 362 446 361 452 348M446 364C446 363 445 361 439 346M542 248C543 248 545 248 558 247C563 247 568 247 574 246M573 246C573 245 573 243 573 227M574 227C573 227 571 227 559 227C554 227 549 227 543 226M552 407C558 406 565 406 621 407C643 408 666 408 690 407" /><path fill="#FCF2E3" stroke-width="2" d="M680 412C680 412 681 411 688 406C687 406 686 405 678 401C678 401 677 402 669 406C670 406 671 407 680 412 Z" /><path stroke-width="2" d="M551 408C552 408 554 408 567 412M552 408C553 408 554 407 567 402M444 181C444 179 444 176 444 152C444 143 444 133 443 122" /><path fill="#FCF2E3" stroke-width="2" d="M450 138C449 138 448 138 438 139C438 138 439 136 443 122C443 123 444 125 450 138 Z" /><path stroke-width="2" d="M433 599C433 602 433 606 433 634C433 645 433 657 433 669M435 668C435 667 434 666 428 654M433 668C433 667 434 666 440 654M625 739C631 740 637 740 689 739C710 739 732 739 755 738M755 739C754 739 753 740 740 745M755 739C754 739 752 738 739 732M434 461C434 464 434 468 434 500C434 513 434 527 435 541M433 539C433 538 432 537 428 526M435 540C435 539 435 537 439 524" /><g transform="matrix(1 0 0 -1 319 344)"><rect fill="#FFFFFF" stroke="none" x="0" width="104" y="-13" height="13" /></g><text transform="matrix(1 0 0 1 319 344)" fill="#000000" font-style="italic" stroke="none"><tspan dx="0 " x="0" y="10">+geomorfologisch_vlak</tspan></text><g transform="matrix(1 0 0 -1 465 344)"><rect fill="#FFFFFF" stroke="none" x="0" width="14" y="-13" height="13" /></g><text transform="matrix(1 0 0 1 465 344)" fill="#000000" font-style="italic" stroke="none"><tspan dx="0 " x="0" y="10">1..*</tspan></text><g transform="matrix(1 0 0 -1 370 315)"><rect fill="#FFFFFF" stroke="none" x="0" width="146" y="-13" height="13" /></g><text transform="matrix(1 0 0 1 370 315)" fill="#000000" font-style="italic" stroke="none"><tspan dx="0 " x="0" y="10">heeft_geomorfologische_vlakken</tspan></text><g transform="matrix(1 0 0 -1 664 722)"><rect fill="#FFFFFF" stroke="none" x="0" width="28" y="-13" height="13" /></g><text transform="matrix(1 0 0 1 664 722)" fill="#000000" font-style="italic" stroke="none"><tspan dx="0 " x="0" y="10">omvat</tspan></text><g transform="matrix(1 0 0 -1 657 750)"><rect fill="#FFFFFF" stroke="none" x="0" width="92" y="-13" height="13" /></g><text transform="matrix(1 0 0 1 657 750)" fill="#000000" font-style="italic" stroke="none"><tspan dx="0 " x="0" y="10">+landvormsubgroep</tspan></text><g transform="matrix(1 0 0 -1 538 223)"><rect fill="#FFFFFF" stroke="none" x="0" width="68" y="-13" height="13" /></g><text transform="matrix(1 0 0 1 538 223)" fill="#000000" font-style="italic" stroke="none"><tspan dx="0 " x="0" y="10">«ExternalLink»</tspan></text><g transform="matrix(1 0 0 -1 355 486)"><rect fill="#FFFFFF" stroke="none" x="0" width="147" y="-13" height="13" /></g><text transform="matrix(1 0 0 1 355 486)" fill="#000000" font-style="italic" stroke="none"><tspan dx="0 " x="0" y="10">heeft_geomorfologische_eenheid</tspan></text><g transform="matrix(1 0 0 -1 296 522)"><rect fill="#FFFFFF" stroke="none" x="0" width="123" y="-13" height="13" /></g><text transform="matrix(1 0 0 1 296 522)" fill="#000000" font-style="italic" stroke="none"><tspan dx="0 " x="0" y="10">+geomorfologischeEenheid</tspan></text><g transform="matrix(1 0 0 -1 422 621)"><rect fill="#FFFFFF" stroke="none" x="0" width="23" y="-13" height="13" /></g><text transform="matrix(1 0 0 1 422 621)" fill="#000000" font-style="italic" stroke="none"><tspan dx="0 " x="0" y="10">heeft</tspan></text><g transform="matrix(1 0 0 -1 397 651)"><rect fill="#FFFFFF" stroke="none" x="0" width="27" y="-13" height="13" /></g><text transform="matrix(1 0 0 1 397 651)" fill="#000000" font-style="italic" stroke="none"><tspan dx="0 " x="0" y="10">+code</tspan></text><g transform="matrix(1 0 0 -1 93 350)"><rect fill="#FFFFFF" stroke="none" x="0" width="42" y="-13" height="13" /></g><text transform="matrix(1 0 0 1 93 350)" fill="#000000" font-style="italic" stroke="none"><tspan dx="0 " x="0" y="10">+dijkvlak</tspan></text><g transform="matrix(1 0 0 -1 173 349)"><rect fill="#FFFFFF" stroke="none" x="0" width="14" y="-13" height="13" /></g><text transform="matrix(1 0 0 1 173 349)" fill="#000000" font-style="italic" stroke="none"><tspan dx="0 " x="0" y="10">0..*</tspan></text><g transform="matrix(1 0 0 -1 214 230)"><rect fill="#FFFFFF" stroke="none" x="0" width="78" y="-13" height="13" /></g><text transform="matrix(1 0 0 1 214 230)" fill="#000000" font-style="italic" stroke="none"><tspan dx="0 " x="0" y="10">heeft_dijkvlakken</tspan></text><g transform="matrix(1 0 0 -1 555 389)"><rect fill="#FFFFFF" stroke="none" x="0" width="26" y="-13" height="13" /></g><text transform="matrix(1 0 0 1 555 389)" fill="#000000" font-style="italic" stroke="none"><tspan dx="0 " x="0" y="10">+vlak</tspan></text><g transform="matrix(1 0 0 -1 558 418)"><rect fill="#FFFFFF" stroke="none" x="0" width="14" y="-13" height="13" /></g><text transform="matrix(1 0 0 1 558 418)" fill="#000000" font-style="italic" stroke="none"><tspan dx="0 " x="0" y="10">1..*</tspan></text><g transform="matrix(1 0 0 -1 582 413)"><rect fill="#FFFFFF" stroke="none" x="0" width="80" y="-13" height="13" /></g><text transform="matrix(1 0 0 1 582 413)" fill="#000000" font-style="italic" stroke="none"><tspan dx="0 " x="0" y="10">beschrijft_vlakken</tspan></text></g></g></g></g></svg>