<?xml version="1.0" encoding="utf-8"?><svg version="1.1" preserveAspectRatio="xMidYMid" xml:space="preserve" width="812.1300299999999pt" height="663.18557pt" viewBox="15.732869999999998 34.37383 812.1300299999999 663.18557" xmlns="http://www.w3.org/2000/svg" xmlns:xlink="http://www.w3.org/1999/xlink"><g transform="matrix(1 0 0 -1 0 825)"><g stroke="#000000" fill="none" fill-rule="evenodd" stroke-width="1" stroke-linecap="round" stroke-linejoin="round" stroke-miterlimit="3" letter-spacing="normal" font-weight="normal" font-style="normal" baseline-shift="0"><g transform="matrix(0.75 0 0 0.75 0 825.099976)"><g transform="matrix(0.958904 0 0 -0.95986 0 0)" font-family="ArialUnicode" font-size="10"><path fill="#DFDFDF" stroke="none" d="M351 190C351 185 351 185 356 185H539C544 185 544 185 544 190v93C544 288 544 288 539 288H356C351 288 351 288 351 283V190" /><path fill="#FFFFFF" stroke="none" d="M348 187C348 182 348 182 353 182H536C541 182 541 182 541 187v93C541 285 541 285 536 285H353C348 285 348 285 348 280V187" /><path d="M348 187C348 182 348 182 353 182H536C541 182 541 182 541 187v93C541 285 541 285 536 285H353C348 285 348 285 348 280V187m0 0C348 182 348 182 353 182H536C541 182 541 182 541 187v93C541 285 541 285 536 285H353C348 285 348 285 348 280V187" /><rect x="348" y="182" width="193" height="103" /><text transform="matrix(1 0 0 1 413 188)" fill="#000000" stroke="none"><tspan dx="0 " x="0" y="9">«Objecttype»</tspan></text><text transform="matrix(1 0 0 1 365 201)" fill="#000000" font-weight="bold" stroke="none"><tspan dx="0 " x="0" y="9">Model::GeomorfologischeKaart</tspan></text><path d="M348 218H541" /><text transform="matrix(1 0 0 1 361 226)" fill="#000000" stroke="none"><tspan dx="0 " x="0" y="9">«Attribuutsoort»</tspan></text><text transform="matrix(1 0 0 1 353 239)" fill="#3C3C3C" stroke="none"><tspan dx="0 " x="0" y="9">+ </tspan></text><text transform="matrix(1 0 0 1 370 239)" fill="#3C3C3C" stroke="none"><tspan dx="0 " x="0" y="9">id: Identifier {id}</tspan></text><text transform="matrix(1 0 0 1 353 252)" fill="#3C3C3C" stroke="none"><tspan dx="0 " x="0" y="9">+ </tspan></text><text transform="matrix(1 0 0 1 370 252)" fill="#3C3C3C" stroke="none"><tspan dx="0 " x="0" y="9">schaal: Integer</tspan></text><text transform="matrix(1 0 0 1 353 265)" fill="#3C3C3C" stroke="none"><tspan dx="0 " x="0" y="9">+ </tspan></text><text transform="matrix(1 0 0 1 370 265)" fill="#3C3C3C" stroke="none"><tspan dx="0 " x="0" y="9">extent: EX_Extent</tspan></text><path fill="#DFDFDF" stroke="none" d="M330 363C330 358 330 358 335 358H560C565 358 565 358 565 363v95C565 463 565 463 560 463H335C330 463 330 463 330 458V363" /><path fill="#FFFFFF" stroke="none" d="M327 360C327 355 327 355 332 355H557C562 355 562 355 562 360v95C562 460 562 460 557 460H332C327 460 327 460 327 455V360" /><path d="M327 360C327 355 327 355 332 355H557C562 355 562 355 562 360v95C562 460 562 460 557 460H332C327 460 327 460 327 455V360m0 0C327 355 327 355 332 355H557C562 355 562 355 562 360v95C562 460 562 460 557 460H332C327 460 327 460 327 455V360" /><rect x="327" y="355" width="235" height="105" /><text transform="matrix(1 0 0 1 413 361)" fill="#000000" stroke="none"><tspan dx="0 " x="0" y="9">«Objecttype»</tspan></text><text transform="matrix(1 0 0 1 357 374)" fill="#000000" font-weight="bold" stroke="none"><tspan dx="0 " x="0" y="9">Model::GeomorfologischKaartvlak</tspan></text><path d="M327 391H562" /><text transform="matrix(1 0 0 1 340 399)" fill="#000000" stroke="none"><tspan dx="0 " x="0" y="9">«Attribuutsoort»</tspan></text><text transform="matrix(1 0 0 1 332 412)" fill="#3C3C3C" stroke="none"><tspan dx="0 " x="0" y="9">+ </tspan></text><text transform="matrix(1 0 0 1 349 412)" fill="#3C3C3C" stroke="none"><tspan dx="0 " x="0" y="9">id: Identifier {id}</tspan></text><text transform="matrix(1 0 0 1 332 425)" fill="#3C3C3C" stroke="none"><tspan dx="0 " x="0" y="9">+ </tspan></text><text transform="matrix(1 0 0 1 349 425)" fill="#3C3C3C" stroke="none"><tspan dx="0 " x="0" y="9">geometrie: GM_Object</tspan></text><text transform="matrix(1 0 0 1 332 438)" fill="#3C3C3C" stroke="none"><tspan dx="0 " x="0" y="9">+ </tspan></text><text transform="matrix(1 0 0 1 349 438)" fill="#3C3C3C" stroke="none"><tspan dx="0 " x="0" y="9">ahnDatum: date</tspan></text><path fill="#DFDFDF" stroke="none" d="M666 363C666 358 666 358 671 358H965C970 358 970 358 970 363v87C970 455 970 455 965 455H671C666 455 666 455 666 450V363" /><path fill="#FFFFFF" stroke="none" d="M663 360C663 355 663 355 668 355H962C967 355 967 355 967 360v87C967 452 967 452 962 452H668C663 452 663 452 663 447V360" /><path d="M663 360C663 355 663 355 668 355H962C967 355 967 355 967 360v87C967 452 967 452 962 452H668C663 452 663 452 663 447V360m0 0C663 355 663 355 668 355H962C967 355 967 355 967 360v87C967 452 967 452 962 452H668C663 452 663 452 663 447V360" /><rect x="663" y="355" width="304" height="97" /><text transform="matrix(1 0 0 1 784 361)" fill="#000000" stroke="none"><tspan dx="0 " x="0" y="9">«Objecttype»</tspan></text><text transform="matrix(1 0 0 1 702 374)" fill="#000000" font-weight="bold" stroke="none"><tspan dx="0 " x="0" y="9">Model::GeomorfologischeKaartvlakCollectie</tspan></text><path d="M663 391H967" /><text transform="matrix(1 0 0 1 676 399)" fill="#000000" stroke="none"><tspan dx="0 " x="0" y="9">«Attribuutsoort»</tspan></text><text transform="matrix(1 0 0 1 668 412)" fill="#3C3C3C" stroke="none"><tspan dx="0 " x="0" y="9">+ </tspan></text><text transform="matrix(1 0 0 1 685 412)" fill="#3C3C3C" stroke="none"><tspan dx="0 " x="0" y="9">id: Identifier {id}</tspan></text><text transform="matrix(1 0 0 1 668 425)" fill="#3C3C3C" stroke="none"><tspan dx="0 " x="0" y="9">+ </tspan></text><text transform="matrix(1 0 0 1 685 425)" fill="#3C3C3C" stroke="none"><tspan dx="0 " x="0" y="9">naam: CharacterString</tspan></text><text transform="matrix(1 0 0 1 668 438)" fill="#3C3C3C" stroke="none"><tspan dx="0 " x="0" y="9">+ </tspan></text><text transform="matrix(1 0 0 1 685 438)" fill="#3C3C3C" stroke="none"><tspan dx="0 " x="0" y="9">type: GeomorfologischeKaartvlakCollectieTypeWaarde</tspan></text><path fill="#DFDFDF" stroke="none" d="M347 70C347 65 347 65 352 65H543C548 65 548 65 548 70v44C548 119 548 119 543 119H352C347 119 347 119 347 114V70" /><path stroke="none" fill="#FFFFFF" d="M344 67C344 62 344 62 349 62H540C545 62 545 62 545 67v44C545 116 545 116 540 116H349C344 116 344 116 344 111V67" /><path stroke="#C0C0C0" d="M344 67C344 62 344 62 349 62H540C545 62 545 62 545 67v44C545 116 545 116 540 116H349C344 116 344 116 344 111V67m0 0C344 62 344 62 349 62H540C545 62 545 62 545 67v44C545 116 545 116 540 116H349C344 116 344 116 344 111V67" /><rect stroke="#C0C0C0" x="344" y="62" width="201" height="54" /><text transform="matrix(1 0 0 1 410 68)" fill="#000000" stroke="none"><tspan dx="0 " x="0" y="9">«featureType»</tspan></text><text transform="matrix(1 0 0 1 362 81)" fill="#000000" font-weight="bold" font-style="italic" stroke="none"><tspan dx="0 " x="0" y="9">FeatureTypes::RegistratieObject</tspan></text><path fill="#DFDFDF" stroke="none" d="M258 679C258 674 258 674 263 674H632C637 674 637 674 637 679V801C637 806 637 806 632 806H263C258 806 258 806 258 801V679" /><path stroke="none" fill="#FBF9C6" d="M255 676C255 671 255 671 260 671H629C634 671 634 671 634 676V798C634 803 634 803 629 803H260C255 803 255 803 255 798V676" /><path stroke="#FFFFFF" d="M255 676C255 671 255 671 260 671H629C634 671 634 671 634 676V798C634 803 634 803 629 803H260C255 803 255 803 255 798V676m0 0C255 671 255 671 260 671H629C634 671 634 671 634 676V798C634 803 634 803 629 803H260C255 803 255 803 255 798V676" /><rect stroke="#FFFFFF" x="255" y="671" width="379" height="132" /><text transform="matrix(1 0 0 1 383 677)" fill="#000000" stroke="none"><tspan dx="0 " x="0" y="9">«Gestruktureerd datatype»</tspan></text><text transform="matrix(1 0 0 1 385 690)" fill="#000000" font-weight="bold" stroke="none"><tspan dx="0 " x="0" y="9">GeomorfologischeCode</tspan></text><path stroke="#FFFFFF" d="M255 707H634" /><text transform="matrix(1 0 0 1 268 715)" fill="#000000" stroke="none"><tspan dx="0 " x="0" y="9">«Data element»</tspan></text><text transform="matrix(1 0 0 1 260 728)" fill="#3C3C3C" stroke="none"><tspan dx="0 " x="0" y="9">+ </tspan></text><text transform="matrix(1 0 0 1 277 728)" fill="#3C3C3C" stroke="none"><tspan dx="0 " x="0" y="9">reliëf: ReliëfWaarde</tspan></text><text transform="matrix(1 0 0 1 260 741)" fill="#3C3C3C" stroke="none"><tspan dx="0 " x="0" y="9">+ </tspan></text><text transform="matrix(1 0 0 1 277 741)" fill="#3C3C3C" stroke="none"><tspan dx="0 " x="0" y="9">actiefVormingsproces: boolean</tspan></text><text transform="matrix(1 0 0 1 260 754)" fill="#3C3C3C" stroke="none"><tspan dx="0 " x="0" y="9">+ </tspan></text><text transform="matrix(1 0 0 1 277 754)" fill="#3C3C3C" stroke="none"><tspan dx="0 " x="0" y="9">toevoegingBovengrond: ToevoegingBovengrondWaarde</tspan></text><text transform="matrix(1 0 0 1 260 767)" fill="#3C3C3C" stroke="none"><tspan dx="0 " x="0" y="9">+ </tspan></text><text transform="matrix(1 0 0 1 277 767)" fill="#3C3C3C" stroke="none"><tspan dx="0 " x="0" y="9">toevoegingLokaleReliëfaspecten: ToevoegingLokaleReliëfaspectenWaarde</tspan></text><text transform="matrix(1 0 0 1 260 780)" fill="#3C3C3C" stroke="none"><tspan dx="0 " x="0" y="9">+ </tspan></text><text transform="matrix(1 0 0 1 277 780)" fill="#3C3C3C" stroke="none"><tspan dx="0 " x="0" y="9">actieveVormbepalendeFactoren: ActieveVormbepalendeFactorenWaarde</tspan></text><text transform="matrix(1 0 0 1 416 809)" fill="#000000" font-style="italic" stroke="none"><tspan dx="0 " x="0" y="9">(from Model)</tspan></text><path fill="#DFDFDF" stroke="none" d="M36 904C36 899 36 899 41 899H158C163 899 163 899 163 904v49C163 958 163 958 158 958H41C36 958 36 958 36 953V904" /><path stroke="none" fill="#D7FCCE" d="M33 901C33 896 33 896 38 896H155C160 896 160 896 160 901v49C160 955 160 955 155 955H38C33 955 33 955 33 950V901" /><path stroke="#C0C0C0" d="M33 901C33 896 33 896 38 896H155C160 896 160 896 160 901v49C160 955 160 955 155 955H38C33 955 33 955 33 950V901m0 0C33 896 33 896 38 896H155C160 896 160 896 160 901v49C160 955 160 955 155 955H38C33 955 33 955 33 950V901" /><rect stroke="#C0C0C0" x="33" y="896" width="127" height="59" /><text transform="matrix(1 0 0 1 48 902)" fill="#000000" stroke="none"><tspan dx="0 " x="0" y="9">«enumeration,Cod...</tspan></text><text transform="matrix(1 0 0 1 44 915)" fill="#000000" font-weight="bold" stroke="none"><tspan dx="0 " x="0" y="9">Model::ReliëfWaarde</tspan></text><path fill="#DFDFDF" stroke="none" d="M891 904C891 899 891 899 896 899h112C1013 899 1013 899 1013 904v49C1013 958 1013 958 1008 958H896C891 958 891 958 891 953V904" /><path stroke="none" fill="#D7FCCE" d="M888 901C888 896 888 896 893 896h112C1010 896 1010 896 1010 901v49C1010 955 1010 955 1005 955H893C888 955 888 955 888 950V901" /><path stroke="#C0C0C0" d="M888 901C888 896 888 896 893 896h112C1010 896 1010 896 1010 901v49C1010 955 1010 955 1005 955H893C888 955 888 955 888 950V901m0 0C888 896 888 896 893 896h112C1010 896 1010 896 1010 901v49C1010 955 1010 955 1005 955H893C888 955 888 955 888 950V901" /><rect stroke="#C0C0C0" x="888" y="896" width="122" height="59" /><text transform="matrix(1 0 0 1 904 902)" fill="#000000" stroke="none"><tspan dx="0 " x="0" y="9">«enumeration,Co...</tspan></text><text transform="matrix(1 0 0 1 930 915)" fill="#000000" font-weight="bold" stroke="none"><tspan dx="0 " x="0" y="9">Model::</tspan></text><text transform="matrix(1 0 0 1 889 927)" fill="#000000" font-weight="bold" stroke="none"><tspan dx="0 " x="0" y="9">LandvormgroepWaarde</tspan></text><path fill="#DFDFDF" stroke="none" d="M1051 904C1051 899 1051 899 1056 899h79C1140 899 1140 899 1140 904v49C1140 958 1140 958 1135 958h-79C1051 958 1051 958 1051 953V904" /><path stroke="none" fill="#D7FCCE" d="M1048 901C1048 896 1048 896 1053 896h79C1137 896 1137 896 1137 901v49C1137 955 1137 955 1132 955h-79C1048 955 1048 955 1048 950V901" /><path stroke="#C0C0C0" d="M1048 901C1048 896 1048 896 1053 896h79C1137 896 1137 896 1137 901v49C1137 955 1137 955 1132 955h-79C1048 955 1048 955 1048 950V901m0 0C1048 896 1048 896 1053 896h79C1137 896 1137 896 1137 901v49C1137 955 1137 955 1132 955h-79C1048 955 1048 955 1048 950V901" /><rect stroke="#C0C0C0" x="1048" y="896" width="89" height="59" /><text transform="matrix(1 0 0 1 1061 902)" fill="#000000" stroke="none"><tspan dx="0 " x="0" y="9">«enumerati...</tspan></text><text transform="matrix(1 0 0 1 1074 915)" fill="#000000" font-weight="bold" stroke="none"><tspan dx="0 " x="0" y="9">Model::</tspan></text><text transform="matrix(1 0 0 1 1054 927)" fill="#000000" font-weight="bold" stroke="none"><tspan dx="0 " x="0" y="9">GeneseWaarde</tspan></text><path fill="#DFDFDF" stroke="none" d="M440 904C440 899 440 899 445 899H596C601 899 601 899 601 904v49C601 958 601 958 596 958H445C440 958 440 958 440 953V904" /><path stroke="none" fill="#D7FCCE" d="M437 901C437 896 437 896 442 896H593C598 896 598 896 598 901v49C598 955 598 955 593 955H442C437 955 437 955 437 950V901" /><path stroke="#C0C0C0" d="M437 901C437 896 437 896 442 896H593C598 896 598 896 598 901v49C598 955 598 955 593 955H442C437 955 437 955 437 950V901m0 0C437 896 437 896 442 896H593C598 896 598 896 598 901v49C598 955 598 955 593 955H442C437 955 437 955 437 950V901" /><rect stroke="#C0C0C0" x="437" y="896" width="161" height="59" /><text transform="matrix(1 0 0 1 461 902)" fill="#000000" stroke="none"><tspan dx="0 " x="0" y="9">«enumeration,Codelist»</tspan></text><text transform="matrix(1 0 0 1 499 915)" fill="#000000" font-weight="bold" stroke="none"><tspan dx="0 " x="0" y="9">Model::</tspan></text><text transform="matrix(1 0 0 1 437 927)" fill="#000000" font-weight="bold" stroke="none"><tspan dx="0 " x="0" y="9">ToevoegingBovengrondWaarde</tspan></text><path fill="#DFDFDF" stroke="none" d="M196 904C196 899 196 899 201 899H398C403 899 403 899 403 904v49C403 958 403 958 398 958H201C196 958 196 958 196 953V904" /><path stroke="none" fill="#D7FCCE" d="M193 901C193 896 193 896 198 896H395C400 896 400 896 400 901v49C400 955 400 955 395 955H198C193 955 193 955 193 950V901" /><path stroke="#C0C0C0" d="M193 901C193 896 193 896 198 896H395C400 896 400 896 400 901v49C400 955 400 955 395 955H198C193 955 193 955 193 950V901m0 0C193 896 193 896 198 896H395C400 896 400 896 400 901v49C400 955 400 955 395 955H198C193 955 193 955 193 950V901" /><rect stroke="#C0C0C0" x="193" y="896" width="207" height="59" /><text transform="matrix(1 0 0 1 240 902)" fill="#000000" stroke="none"><tspan dx="0 " x="0" y="9">«enumeration,Codelist»</tspan></text><text transform="matrix(1 0 0 1 278 915)" fill="#000000" font-weight="bold" stroke="none"><tspan dx="0 " x="0" y="9">Model::</tspan></text><text transform="matrix(1 0 0 1 193 927)" fill="#000000" font-weight="bold" stroke="none"><tspan dx="0 " x="0" y="9">ToevoegingLokaleReliëfaspectenWaarde</tspan></text><path fill="#DFDFDF" stroke="none" d="M633 904C633 899 633 899 638 899H830C835 899 835 899 835 904v49C835 958 835 958 830 958H638C633 958 633 958 633 953V904" /><path stroke="none" fill="#D7FCCE" d="M630 901C630 896 630 896 635 896H827C832 896 832 896 832 901v49C832 955 832 955 827 955H635C630 955 630 955 630 950V901" /><path stroke="#C0C0C0" d="M630 901C630 896 630 896 635 896H827C832 896 832 896 832 901v49C832 955 832 955 827 955H635C630 955 630 955 630 950V901m0 0C630 896 630 896 635 896H827C832 896 832 896 832 901v49C832 955 832 955 827 955H635C630 955 630 955 630 950V901" /><rect stroke="#C0C0C0" x="630" y="896" width="202" height="59" /><text transform="matrix(1 0 0 1 675 902)" fill="#000000" stroke="none"><tspan dx="0 " x="0" y="9">«enumeration,Codelist»</tspan></text><text transform="matrix(1 0 0 1 712 915)" fill="#000000" font-weight="bold" stroke="none"><tspan dx="0 " x="0" y="9">Model::</tspan></text><text transform="matrix(1 0 0 1 630 927)" fill="#000000" font-weight="bold" stroke="none"><tspan dx="0 " x="0" y="9">ActieveVormbepalendeFactorenWaarde</tspan></text><path fill="#DFDFDF" stroke="none" d="M758 673C758 668 758 668 763 668H966C971 668 971 668 971 673v91C971 769 971 769 966 769H763C758 769 758 769 758 764V673" /><path stroke="none" fill="#FBF9C6" d="M755 670C755 665 755 665 760 665H963C968 665 968 665 968 670v91C968 766 968 766 963 766H760C755 766 755 766 755 761V670" /><path stroke="#FFFFFF" d="M755 670C755 665 755 665 760 665H963C968 665 968 665 968 670v91C968 766 968 766 963 766H760C755 766 755 766 755 761V670m0 0C755 665 755 665 760 665H963C968 665 968 665 968 670v91C968 766 968 766 963 766H760C755 766 755 766 755 761V670" /><rect stroke="#FFFFFF" x="755" y="665" width="213" height="101" /><text transform="matrix(1 0 0 1 800 671)" fill="#000000" stroke="none"><tspan dx="0 " x="0" y="9">«Gestruktureerd datatype»</tspan></text><text transform="matrix(1 0 0 1 811 684)" fill="#000000" font-weight="bold" stroke="none"><tspan dx="0 " x="0" y="9">LandvormSubgroep</tspan></text><path stroke="#FFFFFF" d="M755 701H968" /><text transform="matrix(1 0 0 1 768 709)" fill="#000000" stroke="none"><tspan dx="0 " x="0" y="9">«Data element»</tspan></text><text transform="matrix(1 0 0 1 760 722)" fill="#3C3C3C" stroke="none"><tspan dx="0 " x="0" y="9">+ </tspan></text><text transform="matrix(1 0 0 1 777 722)" fill="#3C3C3C" stroke="none"><tspan dx="0 " x="0" y="9">landvormgroep: LandvormgroepWaarde</tspan></text><text transform="matrix(1 0 0 1 760 735)" fill="#3C3C3C" stroke="none"><tspan dx="0 " x="0" y="9">+ </tspan></text><text transform="matrix(1 0 0 1 777 735)" fill="#3C3C3C" stroke="none"><tspan dx="0 " x="0" y="9">genese: GeneseWaarde</tspan></text><text transform="matrix(1 0 0 1 760 748)" fill="#3C3C3C" stroke="none"><tspan dx="0 " x="0" y="9">+ </tspan></text><text transform="matrix(1 0 0 1 777 748)" fill="#3C3C3C" stroke="none"><tspan dx="0 " x="0" y="9">landvormSubgroepNummer: Integer</tspan></text><text transform="matrix(1 0 0 1 833 772)" fill="#000000" font-style="italic" stroke="none"><tspan dx="0 " x="0" y="9">(from Model)</tspan></text><path fill="#DFDFDF" stroke="none" d="M71 363C71 358 71 358 76 358H242C247 358 247 358 247 363v91C247 459 247 459 242 459H76C71 459 71 459 71 454V363" /><path fill="#FFFFFF" stroke="none" d="M68 360C68 355 68 355 73 355H239C244 355 244 355 244 360v91C244 456 244 456 239 456H73C68 456 68 456 68 451V360" /><path d="M68 360C68 355 68 355 73 355H239C244 355 244 355 244 360v91C244 456 244 456 239 456H73C68 456 68 456 68 451V360m0 0C68 355 68 355 73 355H239C244 355 244 355 244 360v91C244 456 244 456 239 456H73C68 456 68 456 68 451V360" /><rect x="68" y="355" width="176" height="101" /><text transform="matrix(1 0 0 1 125 361)" fill="#000000" stroke="none"><tspan dx="0 " x="0" y="9">«Objecttype»</tspan></text><text transform="matrix(1 0 0 1 137 374)" fill="#000000" font-weight="bold" stroke="none"><tspan dx="0 " x="0" y="9">Model::</tspan></text><text transform="matrix(1 0 0 1 68 386)" fill="#000000" font-weight="bold" stroke="none"><tspan dx="0 " x="0" y="9">DijkenVanGeomorfologischBelang</tspan></text><path d="M68 403H244" /><text transform="matrix(1 0 0 1 81 411)" fill="#000000" stroke="none"><tspan dx="0 " x="0" y="9">«Attribuutsoort»</tspan></text><text transform="matrix(1 0 0 1 73 424)" fill="#3C3C3C" stroke="none"><tspan dx="0 " x="0" y="9">+ </tspan></text><text transform="matrix(1 0 0 1 90 424)" fill="#3C3C3C" stroke="none"><tspan dx="0 " x="0" y="9">id: Identifier {id}</tspan></text><text transform="matrix(1 0 0 1 73 437)" fill="#3C3C3C" stroke="none"><tspan dx="0 " x="0" y="9">+ </tspan></text><text transform="matrix(1 0 0 1 90 437)" fill="#3C3C3C" stroke="none"><tspan dx="0 " x="0" y="9">geometrie: GM_Object</tspan></text><path fill="#DFDFDF" stroke="none" d="M369 548C369 543 369 543 374 543H530C535 543 535 543 535 548v50C535 603 535 603 530 603H374C369 603 369 603 369 598V548" /><path stroke="none" fill="#FBF9C6" d="M366 545C366 540 366 540 371 540H527C532 540 532 540 532 545v50C532 600 532 600 527 600H371C366 600 366 600 366 595V545" /><path stroke="#FFFFFF" d="M366 545C366 540 366 540 371 540H527C532 540 532 540 532 545v50C532 600 532 600 527 600H371C366 600 366 600 366 595V545m0 0C366 540 366 540 371 540H527C532 540 532 540 532 545v50C532 600 532 600 527 600H371C366 600 366 600 366 595V545" /><rect stroke="#FFFFFF" x="366" y="540" width="166" height="60" /><text transform="matrix(1 0 0 1 388 546)" fill="#000000" stroke="none"><tspan dx="0 " x="0" y="9">«Gestruktureerd datatype»</tspan></text><text transform="matrix(1 0 0 1 381 559)" fill="#000000" font-weight="bold" stroke="none"><tspan dx="0 " x="0" y="9">GeomorfologischeEenheid</tspan></text><text transform="matrix(1 0 0 1 421 606)" fill="#000000" font-style="italic" stroke="none"><tspan dx="0 " x="0" y="9">(from Model)</tspan></text><path fill="#DFDFDF" stroke="none" d="M704 487C704 482 704 482 709 482H946C951 482 951 482 951 487v49C951 541 951 541 946 541H709C704 541 704 541 704 536V487" /><path stroke="none" fill="#D7FCCE" d="M701 484C701 479 701 479 706 479H943C948 479 948 479 948 484v49C948 538 948 538 943 538H706C701 538 701 538 701 533V484" /><path stroke="#C0C0C0" d="M701 484C701 479 701 479 706 479H943C948 479 948 479 948 484v49C948 538 948 538 943 538H706C701 538 701 538 701 533V484m0 0C701 479 701 479 706 479H943C948 479 948 479 948 484v49C948 538 948 538 943 538H706C701 538 701 538 701 533V484" /><rect stroke="#C0C0C0" x="701" y="479" width="247" height="59" /><text transform="matrix(1 0 0 1 768 485)" fill="#000000" stroke="none"><tspan dx="0 " x="0" y="9">«enumeration,Codelist»</tspan></text><text transform="matrix(1 0 0 1 806 498)" fill="#000000" font-weight="bold" stroke="none"><tspan dx="0 " x="0" y="9">Model::</tspan></text><text transform="matrix(1 0 0 1 700 510)" fill="#000000" font-weight="bold" stroke="none"><tspan dx="0 " x="0" y="9">GeomorfologischeKaartvlakCollectieTypeWaarde</tspan></text><path fill="#DFDFDF" stroke="none" d="M667 67C667 62 667 62 672 62H920C925 62 925 62 925 67v49C925 121 925 121 920 121H672C667 121 667 121 667 116V67" /><path stroke="none" fill="#FFFFFF" d="M664 64C664 59 664 59 669 59H917C922 59 922 59 922 64v49C922 118 922 118 917 118H669C664 118 664 118 664 113V64" /><path stroke="#C0C0C0" d="M664 64C664 59 664 59 669 59H917C922 59 922 59 922 64v49C922 118 922 118 917 118H669C664 118 664 118 664 113V64m0 0C664 59 664 59 669 59H917C922 59 922 59 922 64v49C922 118 922 118 917 118H669C664 118 664 118 664 113V64" /><rect stroke="#C0C0C0" x="664" y="59" width="258" height="59" /><text transform="matrix(1 0 0 1 767 65)" fill="#000000" stroke="none"><tspan dx="0 " x="0" y="9">«datatype»</tspan></text><text transform="matrix(1 0 0 1 684 78)" fill="#000000" font-weight="bold" stroke="none"><tspan dx="0 " x="0" y="9">Citation and responsible party information::</tspan></text><text transform="matrix(1 0 0 1 766 90)" fill="#000000" font-weight="bold" stroke="none"><tspan dx="0 " x="0" y="9">CI_Citation</tspan></text><path d="M635 719H755m0 0l-15 6m15 -6l-15 -6" /><path d="M448 601l-2 70m0 0l-6 -15m6 15l6 -15" /><path d="M348 255H164m0 0V355" /><path fill="#000000" stroke="none" d="M342 254.5C342 253.12 343.12 252 344.5 252C345.88 252 347 253.12 347 254.5C347 255.88 345.88 257 344.5 257C343.12 257 342 255.88 342 254.5" /><path d="M342 254.5C342 253.12 343.12 252 344.5 252C345.88 252 347 253.12 347 254.5C347 255.88 345.88 257 344.5 257C343.12 257 342 255.88 342 254.5" /><path fill="#000000" stroke="none" d="M161 351.5C161 350.12 162.12 349 163.5 349C164.88 349 166 350.12 166 351.5C166 352.88 164.88 354 163.5 354C162.12 354 161 352.88 161 351.5" /><path d="M161 351.5C161 350.12 162.12 349 163.5 349C164.88 349 166 350.12 166 351.5C166 352.88 164.88 354 163.5 354C162.12 354 161 352.88 161 351.5M164 349l-6 -15m6 15l6 -15" /><path d="M542 284h35m0 0V247m0 0H542m0 -12H746m0 0V119m0 0l6 15m-6 -15l-6 15" /><path d="M445 286v69m0 0l-6 -15m6 15l6 -15" /><path d="M445 182V117" /><path fill="#FCF2E3" d="M451 133H439l6 -16l6 16" /><path d="M446 461l2 79m0 0l-6 -15m6 15l6 -15" /><path d="M663 406H563" /><path fill="#000000" stroke="none" d="M657 405.5C657 404.12 658.12 403 659.5 403C660.88 403 662 404.12 662 405.5C662 406.88 660.88 408 659.5 408C658.12 408 657 406.88 657 405.5" /><path d="M657 405.5C657 404.12 658.12 403 659.5 403C660.88 403 662 404.12 662 405.5C662 406.88 660.88 408 659.5 408C658.12 408 657 406.88 657 405.5" /><path fill="#000000" stroke="none" d="M563 405.5C563 404.12 564.12 403 565.5 403C566.88 403 568 404.12 568 405.5C568 406.88 566.88 408 565.5 408C564.12 408 563 406.88 563 405.5" /><path d="M563 405.5C563 404.12 564.12 403 565.5 403C566.88 403 568 404.12 568 405.5C568 406.88 566.88 408 565.5 408C564.12 408 563 406.88 563 405.5M569 406l15 -6m-15 6l15 6" /><path d="M843 355V119m0 0l6 15m-6 -15l-6 15" /><g transform="matrix(1 0 0 -1 336 263)"><rect fill="#FFFFFF" stroke="none" x="0" width="6" y="-11" height="11" /></g><text transform="matrix(1 0 0 1 336 263)" fill="#000000" stroke="none"><tspan dx="0 " x="0" y="9">1</tspan></text><g transform="matrix(1 0 0 -1 166 258)"><rect fill="#FFFFFF" stroke="none" x="0" width="83" y="-11" height="11" /></g><text transform="matrix(1 0 0 1 166 258)" fill="#000000" stroke="none"><tspan dx="0 " x="0" y="9">heeft_dijkvlakken</tspan></text><g transform="matrix(1 0 0 -1 135 301)"><rect fill="#FFFFFF" stroke="none" x="0" width="42" y="-11" height="11" /></g><text transform="matrix(1 0 0 1 135 301)" fill="#000000" stroke="none"><tspan dx="0 " x="0" y="9">+dijkvlak</tspan></text><g transform="matrix(1 0 0 -1 135 314)"><rect fill="#FFFFFF" stroke="none" x="0" width="60" y="-11" height="11" /></g><text transform="matrix(1 0 0 1 135 314)" fill="#000000" stroke="none"><tspan dx="0 " x="0" y="9">«Relatierol»</tspan></text><g transform="matrix(1 0 0 -1 172 337)"><rect fill="#FFFFFF" stroke="none" x="0" width="17" y="-11" height="11" /></g><text transform="matrix(1 0 0 1 172 337)" fill="#000000" stroke="none"><tspan dx="0 " x="0" y="9">0..*</tspan></text><g transform="matrix(1 0 0 -1 449 291)"><rect fill="#FFFFFF" stroke="none" x="0" width="6" y="-11" height="11" /></g><text transform="matrix(1 0 0 1 449 291)" fill="#000000" stroke="none"><tspan dx="0 " x="0" y="9">1</tspan></text><g transform="matrix(1 0 0 -1 370 308)"><rect fill="#FFFFFF" stroke="none" x="0" width="161" y="-11" height="11" /></g><text transform="matrix(1 0 0 1 370 308)" fill="#000000" stroke="none"><tspan dx="0 " x="0" y="9">heeft_geomorfologische_vlakken</tspan></text><g transform="matrix(1 0 0 -1 340 326)"><rect fill="#FFFFFF" stroke="none" x="0" width="113" y="-11" height="11" /></g><text transform="matrix(1 0 0 1 340 326)" fill="#000000" stroke="none"><tspan dx="0 " x="0" y="9">+geomorfologisch_vlak</tspan></text><g transform="matrix(1 0 0 -1 340 339)"><rect fill="#FFFFFF" stroke="none" x="0" width="60" y="-11" height="11" /></g><text transform="matrix(1 0 0 1 340 339)" fill="#000000" stroke="none"><tspan dx="0 " x="0" y="9">«Relatierol»</tspan></text><g transform="matrix(1 0 0 -1 453 337)"><rect fill="#FFFFFF" stroke="none" x="0" width="17" y="-11" height="11" /></g><text transform="matrix(1 0 0 1 453 337)" fill="#000000" stroke="none"><tspan dx="0 " x="0" y="9">1..*</tspan></text><g transform="matrix(1 0 0 -1 578 432)"><rect fill="#FFFFFF" stroke="none" x="0" width="86" y="-11" height="11" /></g><text transform="matrix(1 0 0 1 578 432)" fill="#000000" stroke="none"><tspan dx="0 " x="0" y="9">beschrijft_vlakken</tspan></text><g transform="matrix(1 0 0 -1 563 373)"><rect fill="#FFFFFF" stroke="none" x="0" width="25" y="-11" height="11" /></g><text transform="matrix(1 0 0 1 563 373)" fill="#000000" stroke="none"><tspan dx="0 " x="0" y="9">+vlak</tspan></text><g transform="matrix(1 0 0 -1 563 386)"><rect fill="#FFFFFF" stroke="none" x="0" width="60" y="-11" height="11" /></g><text transform="matrix(1 0 0 1 563 386)" fill="#000000" stroke="none"><tspan dx="0 " x="0" y="9">«Relatierol»</tspan></text><g transform="matrix(1 0 0 -1 566 411)"><rect fill="#FFFFFF" stroke="none" x="0" width="17" y="-11" height="11" /></g><text transform="matrix(1 0 0 1 566 411)" fill="#000000" stroke="none"><tspan dx="0 " x="0" y="9">1..*</tspan></text><g transform="matrix(1 0 0 -1 691 190)"><rect fill="#FFFFFF" stroke="none" x="0" width="94" y="-11" height="11" /></g><text transform="matrix(1 0 0 1 691 190)" fill="#000000" stroke="none"><tspan dx="0 " x="0" y="9">heeftDocumentatie</tspan></text><g transform="matrix(1 0 0 -1 676 124)"><rect fill="#FFFFFF" stroke="none" x="0" width="55" y="-11" height="11" /></g><text transform="matrix(1 0 0 1 676 124)" fill="#000000" stroke="none"><tspan dx="0 " x="0" y="9">+document</tspan></text><g transform="matrix(1 0 0 -1 675 137)"><rect fill="#FFFFFF" stroke="none" x="0" width="60" y="-11" height="11" /></g><text transform="matrix(1 0 0 1 675 137)" fill="#000000" stroke="none"><tspan dx="0 " x="0" y="9">«Relatierol»</tspan></text><g transform="matrix(1 0 0 -1 556 255)"><rect fill="#FFFFFF" stroke="none" x="0" width="44" y="-11" height="11" /></g><text transform="matrix(1 0 0 1 556 255)" fill="#000000" stroke="none"><tspan dx="0 " x="0" y="9">«Externe</tspan></text><g transform="matrix(1 0 0 -1 552 268)"><rect fill="#FFFFFF" stroke="none" x="0" width="54" y="-11" height="11" /></g><text transform="matrix(1 0 0 1 552 268)" fill="#000000" stroke="none"><tspan dx="0 " x="0" y="9">koppeling»</tspan></text><g transform="matrix(1 0 0 -1 798 223)"><rect fill="#FFFFFF" stroke="none" x="0" width="94" y="-11" height="11" /></g><text transform="matrix(1 0 0 1 798 223)" fill="#000000" stroke="none"><tspan dx="0 " x="0" y="9">heeftDocumentatie</tspan></text><g transform="matrix(1 0 0 -1 778 122)"><rect fill="#FFFFFF" stroke="none" x="0" width="55" y="-11" height="11" /></g><text transform="matrix(1 0 0 1 778 122)" fill="#000000" stroke="none"><tspan dx="0 " x="0" y="9">+document</tspan></text><g transform="matrix(1 0 0 -1 777 135)"><rect fill="#FFFFFF" stroke="none" x="0" width="60" y="-11" height="11" /></g><text transform="matrix(1 0 0 1 777 135)" fill="#000000" stroke="none"><tspan dx="0 " x="0" y="9">«Relatierol»</tspan></text><g transform="matrix(1 0 0 -1 435 622)"><rect fill="#FFFFFF" stroke="none" x="0" width="25" y="-11" height="11" /></g><text transform="matrix(1 0 0 1 435 622)" fill="#000000" stroke="none"><tspan dx="0 " x="0" y="9">heeft</tspan></text><g transform="matrix(1 0 0 -1 383 644)"><rect fill="#FFFFFF" stroke="none" x="0" width="30" y="-11" height="11" /></g><text transform="matrix(1 0 0 1 383 644)" fill="#000000" stroke="none"><tspan dx="0 " x="0" y="9">+code</tspan></text><g transform="matrix(1 0 0 -1 383 657)"><rect fill="#FFFFFF" stroke="none" x="0" width="60" y="-11" height="11" /></g><text transform="matrix(1 0 0 1 383 657)" fill="#000000" stroke="none"><tspan dx="0 " x="0" y="9">«Relatierol»</tspan></text><g transform="matrix(1 0 0 -1 669 702)"><rect fill="#FFFFFF" stroke="none" x="0" width="30" y="-11" height="11" /></g><text transform="matrix(1 0 0 1 669 702)" fill="#000000" stroke="none"><tspan dx="0 " x="0" y="9">omvat</tspan></text><g transform="matrix(1 0 0 -1 659 733)"><rect fill="#FFFFFF" stroke="none" x="0" width="100" y="-11" height="11" /></g><text transform="matrix(1 0 0 1 659 733)" fill="#000000" stroke="none"><tspan dx="0 " x="0" y="9">+landvormSubgroep</tspan></text><g transform="matrix(1 0 0 -1 677 746)"><rect fill="#FFFFFF" stroke="none" x="0" width="60" y="-11" height="11" /></g><text transform="matrix(1 0 0 1 677 746)" fill="#000000" stroke="none"><tspan dx="0 " x="0" y="9">«Relatierol»</tspan></text><g transform="matrix(1 0 0 -1 368 487)"><rect fill="#FFFFFF" stroke="none" x="0" width="166" y="-11" height="11" /></g><text transform="matrix(1 0 0 1 368 487)" fill="#000000" stroke="none"><tspan dx="0 " x="0" y="9">heeft_geomorfologische_eenheid</tspan></text><g transform="matrix(1 0 0 -1 309 513)"><rect fill="#FFFFFF" stroke="none" x="0" width="136" y="-11" height="11" /></g><text transform="matrix(1 0 0 1 309 513)" fill="#000000" stroke="none"><tspan dx="0 " x="0" y="9">+geomorfologischeEenheid</tspan></text><g transform="matrix(1 0 0 -1 344 526)"><rect fill="#FFFFFF" stroke="none" x="0" width="60" y="-11" height="11" /></g><text transform="matrix(1 0 0 1 344 526)" fill="#000000" stroke="none"><tspan dx="0 " x="0" y="9">«Relatierol»</tspan></text></g></g></g></g></svg>