<?xml version="1.0" encoding="utf-8"?><svg version="1.1" preserveAspectRatio="xMidYMid" xml:space="preserve" width="812.1300299999999pt" height="717.17768pt" viewBox="15.732869999999998 36.53352 812.1300299999999 717.17768" xmlns="http://www.w3.org/2000/svg" xmlns:xlink="http://www.w3.org/1999/xlink"><g transform="matrix(1 0 0 -1 0 825)"><g stroke="#000000" fill="none" fill-rule="evenodd" stroke-width="1" stroke-linecap="round" stroke-linejoin="round" stroke-miterlimit="3" letter-spacing="normal" font-weight="normal" font-style="normal" baseline-shift="0"><g transform="matrix(0.75 0 0 0.75 0 825.099976)"><g transform="matrix(0.958904 0 0 -0.95986 0 0)" font-family="ArialUnicode" font-size="10"><path fill="#DFDFDF" stroke="none" d="M351 190C351 185 351 185 356 185H539C544 185 544 185 544 190v93C544 288 544 288 539 288H356C351 288 351 288 351 283V190" /><path fill="#FFFFFF" stroke="none" d="M348 187C348 182 348 182 353 182H536C541 182 541 182 541 187v93C541 285 541 285 536 285H353C348 285 348 285 348 280V187" /><path d="M348 187C348 182 348 182 353 182H536C541 182 541 182 541 187v93C541 285 541 285 536 285H353C348 285 348 285 348 280V187m0 0C348 182 348 182 353 182H536C541 182 541 182 541 187v93C541 285 541 285 536 285H353C348 285 348 285 348 280V187" /><rect x="348" y="182" width="193" height="103" /><text transform="matrix(1 0 0 1 413 188)" fill="#000000" stroke="none"><tspan dx="0 " x="0" y="9">«Objecttype»</tspan></text><text transform="matrix(1 0 0 1 365 201)" fill="#000000" font-weight="bold" stroke="none"><tspan dx="0 " x="0" y="9">Model::GeomorfologischeKaart</tspan></text><path d="M348 218H541" /><text transform="matrix(1 0 0 1 361 226)" fill="#000000" stroke="none"><tspan dx="0 " x="0" y="9">«Attribuutsoort»</tspan></text><text transform="matrix(1 0 0 1 353 239)" fill="#3C3C3C" stroke="none"><tspan dx="0 " x="0" y="9">+ </tspan></text><text transform="matrix(1 0 0 1 370 239)" fill="#3C3C3C" stroke="none"><tspan dx="0 " x="0" y="9">id: Identifier {id}</tspan></text><text transform="matrix(1 0 0 1 353 252)" fill="#3C3C3C" stroke="none"><tspan dx="0 " x="0" y="9">+ </tspan></text><text transform="matrix(1 0 0 1 370 252)" fill="#3C3C3C" stroke="none"><tspan dx="0 " x="0" y="9">schaal: Integer</tspan></text><text transform="matrix(1 0 0 1 353 265)" fill="#3C3C3C" stroke="none"><tspan dx="0 " x="0" y="9">+ </tspan></text><text transform="matrix(1 0 0 1 370 265)" fill="#3C3C3C" stroke="none"><tspan dx="0 " x="0" y="9">extent: EX_Extent</tspan></text><path fill="#DFDFDF" stroke="none" d="M330 363C330 358 330 358 335 358H560C565 358 565 358 565 363V467C565 472 565 472 560 472H335C330 472 330 472 330 467V363" /><path fill="#FFFFFF" stroke="none" d="M327 360C327 355 327 355 332 355H557C562 355 562 355 562 360V464C562 469 562 469 557 469H332C327 469 327 469 327 464V360" /><path d="M327 360C327 355 327 355 332 355H557C562 355 562 355 562 360V464C562 469 562 469 557 469H332C327 469 327 469 327 464V360m0 0C327 355 327 355 332 355H557C562 355 562 355 562 360V464C562 469 562 469 557 469H332C327 469 327 469 327 464V360" /><rect x="327" y="355" width="235" height="114" /><text transform="matrix(1 0 0 1 413 361)" fill="#000000" stroke="none"><tspan dx="0 " x="0" y="9">«Objecttype»</tspan></text><text transform="matrix(1 0 0 1 357 374)" fill="#000000" font-weight="bold" stroke="none"><tspan dx="0 " x="0" y="9">Model::GeomorfologischKaartvlak</tspan></text><path d="M327 391H562" /><text transform="matrix(1 0 0 1 340 399)" fill="#000000" stroke="none"><tspan dx="0 " x="0" y="9">«Attribuutsoort»</tspan></text><text transform="matrix(1 0 0 1 332 412)" fill="#3C3C3C" stroke="none"><tspan dx="0 " x="0" y="9">+ </tspan></text><text transform="matrix(1 0 0 1 349 412)" fill="#3C3C3C" stroke="none"><tspan dx="0 " x="0" y="9">id: Identifier {id}</tspan></text><text transform="matrix(1 0 0 1 332 425)" fill="#3C3C3C" stroke="none"><tspan dx="0 " x="0" y="9">+ </tspan></text><text transform="matrix(1 0 0 1 349 425)" fill="#3C3C3C" stroke="none"><tspan dx="0 " x="0" y="9">geometrie: GM_Object</tspan></text><text transform="matrix(1 0 0 1 332 438)" fill="#3C3C3C" stroke="none"><tspan dx="0 " x="0" y="9">+ </tspan></text><text transform="matrix(1 0 0 1 349 438)" fill="#3C3C3C" stroke="none"><tspan dx="0 " x="0" y="9">ahnDatum: date</tspan></text><text transform="matrix(1 0 0 1 332 451)" fill="#3C3C3C" stroke="none"><tspan dx="0 " x="0" y="9">+ </tspan></text><text transform="matrix(1 0 0 1 349 451)" fill="#3C3C3C" stroke="none"><tspan dx="0 " x="0" y="9">legendaEenheid: LandvormSubgroep</tspan></text><path fill="#DFDFDF" stroke="none" d="M666 363C666 358 666 358 671 358H965C970 358 970 358 970 363v87C970 455 970 455 965 455H671C666 455 666 455 666 450V363" /><path fill="#FFFFFF" stroke="none" d="M663 360C663 355 663 355 668 355H962C967 355 967 355 967 360v87C967 452 967 452 962 452H668C663 452 663 452 663 447V360" /><path d="M663 360C663 355 663 355 668 355H962C967 355 967 355 967 360v87C967 452 967 452 962 452H668C663 452 663 452 663 447V360m0 0C663 355 663 355 668 355H962C967 355 967 355 967 360v87C967 452 967 452 962 452H668C663 452 663 452 663 447V360" /><rect x="663" y="355" width="304" height="97" /><text transform="matrix(1 0 0 1 784 361)" fill="#000000" stroke="none"><tspan dx="0 " x="0" y="9">«Objecttype»</tspan></text><text transform="matrix(1 0 0 1 702 374)" fill="#000000" font-weight="bold" stroke="none"><tspan dx="0 " x="0" y="9">Model::GeomorfologischeKaartvlakCollectie</tspan></text><path d="M663 391H967" /><text transform="matrix(1 0 0 1 676 399)" fill="#000000" stroke="none"><tspan dx="0 " x="0" y="9">«Attribuutsoort»</tspan></text><text transform="matrix(1 0 0 1 668 412)" fill="#3C3C3C" stroke="none"><tspan dx="0 " x="0" y="9">+ </tspan></text><text transform="matrix(1 0 0 1 685 412)" fill="#3C3C3C" stroke="none"><tspan dx="0 " x="0" y="9">id: Identifier {id}</tspan></text><text transform="matrix(1 0 0 1 668 425)" fill="#3C3C3C" stroke="none"><tspan dx="0 " x="0" y="9">+ </tspan></text><text transform="matrix(1 0 0 1 685 425)" fill="#3C3C3C" stroke="none"><tspan dx="0 " x="0" y="9">naam: CharacterString</tspan></text><text transform="matrix(1 0 0 1 668 438)" fill="#3C3C3C" stroke="none"><tspan dx="0 " x="0" y="9">+ </tspan></text><text transform="matrix(1 0 0 1 685 438)" fill="#3C3C3C" stroke="none"><tspan dx="0 " x="0" y="9">type: GeomorfologischeKaartvlakCollectieTypeWaarde</tspan></text><path fill="#DFDFDF" stroke="none" d="M347 70C347 65 347 65 352 65H543C548 65 548 65 548 70v44C548 119 548 119 543 119H352C347 119 347 119 347 114V70" /><path stroke="none" fill="#FFFFFF" d="M344 67C344 62 344 62 349 62H540C545 62 545 62 545 67v44C545 116 545 116 540 116H349C344 116 344 116 344 111V67" /><path stroke="#C0C0C0" d="M344 67C344 62 344 62 349 62H540C545 62 545 62 545 67v44C545 116 545 116 540 116H349C344 116 344 116 344 111V67m0 0C344 62 344 62 349 62H540C545 62 545 62 545 67v44C545 116 545 116 540 116H349C344 116 344 116 344 111V67" /><rect stroke="#C0C0C0" x="344" y="62" width="201" height="54" /><text transform="matrix(1 0 0 1 410 68)" fill="#000000" stroke="none"><tspan dx="0 " x="0" y="9">«featureType»</tspan></text><text transform="matrix(1 0 0 1 362 81)" fill="#000000" font-weight="bold" font-style="italic" stroke="none"><tspan dx="0 " x="0" y="9">FeatureTypes::RegistratieObject</tspan></text><path fill="#DFDFDF" stroke="none" d="M258 678C258 673 258 673 263 673H632C637 673 637 673 637 678V812C637 817 637 817 632 817H263C258 817 258 817 258 812V678" /><path stroke="none" fill="#FBF9C6" d="M255 675C255 670 255 670 260 670H629C634 670 634 670 634 675V809C634 814 634 814 629 814H260C255 814 255 814 255 809V675" /><path stroke="#FFFFFF" d="M255 675C255 670 255 670 260 670H629C634 670 634 670 634 675V809C634 814 634 814 629 814H260C255 814 255 814 255 809V675m0 0C255 670 255 670 260 670H629C634 670 634 670 634 675V809C634 814 634 814 629 814H260C255 814 255 814 255 809V675" /><rect stroke="#FFFFFF" x="255" y="670" width="379" height="144" /><text transform="matrix(1 0 0 1 383 676)" fill="#000000" stroke="none"><tspan dx="0 " x="0" y="9">«Gestruktureerd datatype»</tspan></text><text transform="matrix(1 0 0 1 385 689)" fill="#000000" font-weight="bold" stroke="none"><tspan dx="0 " x="0" y="9">GeomorfologischeCode</tspan></text><path stroke="#FFFFFF" d="M255 706H634" /><text transform="matrix(1 0 0 1 268 714)" fill="#000000" stroke="none"><tspan dx="0 " x="0" y="9">«Data element»</tspan></text><text transform="matrix(1 0 0 1 260 727)" fill="#3C3C3C" stroke="none"><tspan dx="0 " x="0" y="9">+ </tspan></text><text transform="matrix(1 0 0 1 277 727)" fill="#3C3C3C" stroke="none"><tspan dx="0 " x="0" y="9">reliëf: ReliëfWaarde</tspan></text><text transform="matrix(1 0 0 1 260 740)" fill="#3C3C3C" stroke="none"><tspan dx="0 " x="0" y="9">+ </tspan></text><text transform="matrix(1 0 0 1 277 740)" fill="#3C3C3C" stroke="none"><tspan dx="0 " x="0" y="9">landvormSubgroep: LandvormSubgroepWaarde</tspan></text><text transform="matrix(1 0 0 1 260 753)" fill="#3C3C3C" stroke="none"><tspan dx="0 " x="0" y="9">+ </tspan></text><text transform="matrix(1 0 0 1 277 753)" fill="#3C3C3C" stroke="none"><tspan dx="0 " x="0" y="9">actiefVormingsproces: boolean</tspan></text><text transform="matrix(1 0 0 1 260 766)" fill="#3C3C3C" stroke="none"><tspan dx="0 " x="0" y="9">+ </tspan></text><text transform="matrix(1 0 0 1 277 766)" fill="#3C3C3C" stroke="none"><tspan dx="0 " x="0" y="9">toevoegingBovengrond: ToevoegingBovengrondWaarde</tspan></text><text transform="matrix(1 0 0 1 260 779)" fill="#3C3C3C" stroke="none"><tspan dx="0 " x="0" y="9">+ </tspan></text><text transform="matrix(1 0 0 1 277 779)" fill="#3C3C3C" stroke="none"><tspan dx="0 " x="0" y="9">toevoegingLokaleReliëfaspecten: ToevoegingLokaleReliëfaspectenWaarde</tspan></text><text transform="matrix(1 0 0 1 260 792)" fill="#3C3C3C" stroke="none"><tspan dx="0 " x="0" y="9">+ </tspan></text><text transform="matrix(1 0 0 1 277 792)" fill="#3C3C3C" stroke="none"><tspan dx="0 " x="0" y="9">actieveVormbepalendeFactoren: ActieveVormbepalendeFactorenWaarde</tspan></text><text transform="matrix(1 0 0 1 416 820)" fill="#000000" font-style="italic" stroke="none"><tspan dx="0 " x="0" y="9">(from Model)</tspan></text><path fill="#DFDFDF" stroke="none" d="M36 904C36 899 36 899 41 899H158C163 899 163 899 163 904v49C163 958 163 958 158 958H41C36 958 36 958 36 953V904" /><path stroke="none" fill="#D7FCCE" d="M33 901C33 896 33 896 38 896H155C160 896 160 896 160 901v49C160 955 160 955 155 955H38C33 955 33 955 33 950V901" /><path stroke="#C0C0C0" d="M33 901C33 896 33 896 38 896H155C160 896 160 896 160 901v49C160 955 160 955 155 955H38C33 955 33 955 33 950V901m0 0C33 896 33 896 38 896H155C160 896 160 896 160 901v49C160 955 160 955 155 955H38C33 955 33 955 33 950V901" /><rect stroke="#C0C0C0" x="33" y="896" width="127" height="59" /><text transform="matrix(1 0 0 1 48 902)" fill="#000000" stroke="none"><tspan dx="0 " x="0" y="9">«enumeration,Cod...</tspan></text><text transform="matrix(1 0 0 1 44 915)" fill="#000000" font-weight="bold" stroke="none"><tspan dx="0 " x="0" y="9">Model::ReliëfWaarde</tspan></text><path fill="#DFDFDF" stroke="none" d="M891 904C891 899 891 899 896 899h112C1013 899 1013 899 1013 904v49C1013 958 1013 958 1008 958H896C891 958 891 958 891 953V904" /><path stroke="none" fill="#D7FCCE" d="M888 901C888 896 888 896 893 896h112C1010 896 1010 896 1010 901v49C1010 955 1010 955 1005 955H893C888 955 888 955 888 950V901" /><path stroke="#C0C0C0" d="M888 901C888 896 888 896 893 896h112C1010 896 1010 896 1010 901v49C1010 955 1010 955 1005 955H893C888 955 888 955 888 950V901m0 0C888 896 888 896 893 896h112C1010 896 1010 896 1010 901v49C1010 955 1010 955 1005 955H893C888 955 888 955 888 950V901" /><rect stroke="#C0C0C0" x="888" y="896" width="122" height="59" /><text transform="matrix(1 0 0 1 904 902)" fill="#000000" stroke="none"><tspan dx="0 " x="0" y="9">«enumeration,Co...</tspan></text><text transform="matrix(1 0 0 1 930 915)" fill="#000000" font-weight="bold" stroke="none"><tspan dx="0 " x="0" y="9">Model::</tspan></text><text transform="matrix(1 0 0 1 889 927)" fill="#000000" font-weight="bold" stroke="none"><tspan dx="0 " x="0" y="9">LandvormgroepWaarde</tspan></text><path fill="#DFDFDF" stroke="none" d="M1051 904C1051 899 1051 899 1056 899h79C1140 899 1140 899 1140 904v49C1140 958 1140 958 1135 958h-79C1051 958 1051 958 1051 953V904" /><path stroke="none" fill="#D7FCCE" d="M1048 901C1048 896 1048 896 1053 896h79C1137 896 1137 896 1137 901v49C1137 955 1137 955 1132 955h-79C1048 955 1048 955 1048 950V901" /><path stroke="#C0C0C0" d="M1048 901C1048 896 1048 896 1053 896h79C1137 896 1137 896 1137 901v49C1137 955 1137 955 1132 955h-79C1048 955 1048 955 1048 950V901m0 0C1048 896 1048 896 1053 896h79C1137 896 1137 896 1137 901v49C1137 955 1137 955 1132 955h-79C1048 955 1048 955 1048 950V901" /><rect stroke="#C0C0C0" x="1048" y="896" width="89" height="59" /><text transform="matrix(1 0 0 1 1061 902)" fill="#000000" stroke="none"><tspan dx="0 " x="0" y="9">«enumerati...</tspan></text><text transform="matrix(1 0 0 1 1074 915)" fill="#000000" font-weight="bold" stroke="none"><tspan dx="0 " x="0" y="9">Model::</tspan></text><text transform="matrix(1 0 0 1 1054 927)" fill="#000000" font-weight="bold" stroke="none"><tspan dx="0 " x="0" y="9">GeneseWaarde</tspan></text><path fill="#DFDFDF" stroke="none" d="M440 904C440 899 440 899 445 899H596C601 899 601 899 601 904v49C601 958 601 958 596 958H445C440 958 440 958 440 953V904" /><path stroke="none" fill="#D7FCCE" d="M437 901C437 896 437 896 442 896H593C598 896 598 896 598 901v49C598 955 598 955 593 955H442C437 955 437 955 437 950V901" /><path stroke="#C0C0C0" d="M437 901C437 896 437 896 442 896H593C598 896 598 896 598 901v49C598 955 598 955 593 955H442C437 955 437 955 437 950V901m0 0C437 896 437 896 442 896H593C598 896 598 896 598 901v49C598 955 598 955 593 955H442C437 955 437 955 437 950V901" /><rect stroke="#C0C0C0" x="437" y="896" width="161" height="59" /><text transform="matrix(1 0 0 1 461 902)" fill="#000000" stroke="none"><tspan dx="0 " x="0" y="9">«enumeration,Codelist»</tspan></text><text transform="matrix(1 0 0 1 499 915)" fill="#000000" font-weight="bold" stroke="none"><tspan dx="0 " x="0" y="9">Model::</tspan></text><text transform="matrix(1 0 0 1 437 927)" fill="#000000" font-weight="bold" stroke="none"><tspan dx="0 " x="0" y="9">ToevoegingBovengrondWaarde</tspan></text><path fill="#DFDFDF" stroke="none" d="M196 904C196 899 196 899 201 899H398C403 899 403 899 403 904v49C403 958 403 958 398 958H201C196 958 196 958 196 953V904" /><path stroke="none" fill="#D7FCCE" d="M193 901C193 896 193 896 198 896H395C400 896 400 896 400 901v49C400 955 400 955 395 955H198C193 955 193 955 193 950V901" /><path stroke="#C0C0C0" d="M193 901C193 896 193 896 198 896H395C400 896 400 896 400 901v49C400 955 400 955 395 955H198C193 955 193 955 193 950V901m0 0C193 896 193 896 198 896H395C400 896 400 896 400 901v49C400 955 400 955 395 955H198C193 955 193 955 193 950V901" /><rect stroke="#C0C0C0" x="193" y="896" width="207" height="59" /><text transform="matrix(1 0 0 1 240 902)" fill="#000000" stroke="none"><tspan dx="0 " x="0" y="9">«enumeration,Codelist»</tspan></text><text transform="matrix(1 0 0 1 278 915)" fill="#000000" font-weight="bold" stroke="none"><tspan dx="0 " x="0" y="9">Model::</tspan></text><text transform="matrix(1 0 0 1 193 927)" fill="#000000" font-weight="bold" stroke="none"><tspan dx="0 " x="0" y="9">ToevoegingLokaleReliëfaspectenWaarde</tspan></text><path fill="#DFDFDF" stroke="none" d="M633 904C633 899 633 899 638 899H830C835 899 835 899 835 904v49C835 958 835 958 830 958H638C633 958 633 958 633 953V904" /><path stroke="none" fill="#D7FCCE" d="M630 901C630 896 630 896 635 896H827C832 896 832 896 832 901v49C832 955 832 955 827 955H635C630 955 630 955 630 950V901" /><path stroke="#C0C0C0" d="M630 901C630 896 630 896 635 896H827C832 896 832 896 832 901v49C832 955 832 955 827 955H635C630 955 630 955 630 950V901m0 0C630 896 630 896 635 896H827C832 896 832 896 832 901v49C832 955 832 955 827 955H635C630 955 630 955 630 950V901" /><rect stroke="#C0C0C0" x="630" y="896" width="202" height="59" /><text transform="matrix(1 0 0 1 675 902)" fill="#000000" stroke="none"><tspan dx="0 " x="0" y="9">«enumeration,Codelist»</tspan></text><text transform="matrix(1 0 0 1 712 915)" fill="#000000" font-weight="bold" stroke="none"><tspan dx="0 " x="0" y="9">Model::</tspan></text><text transform="matrix(1 0 0 1 630 927)" fill="#000000" font-weight="bold" stroke="none"><tspan dx="0 " x="0" y="9">ActieveVormbepalendeFactorenWaarde</tspan></text><path fill="#DFDFDF" stroke="none" d="M757 678C757 673 757 673 762 673H965C970 673 970 673 970 678v91C970 774 970 774 965 774H762C757 774 757 774 757 769V678" /><path stroke="none" fill="#FBF9C6" d="M754 675C754 670 754 670 759 670H962C967 670 967 670 967 675v91C967 771 967 771 962 771H759C754 771 754 771 754 766V675" /><path stroke="#FFFFFF" d="M754 675C754 670 754 670 759 670H962C967 670 967 670 967 675v91C967 771 967 771 962 771H759C754 771 754 771 754 766V675m0 0C754 670 754 670 759 670H962C967 670 967 670 967 675v91C967 771 967 771 962 771H759C754 771 754 771 754 766V675" /><rect stroke="#FFFFFF" x="754" y="670" width="213" height="101" /><text transform="matrix(1 0 0 1 799 676)" fill="#000000" stroke="none"><tspan dx="0 " x="0" y="9">«Gestruktureerd datatype»</tspan></text><text transform="matrix(1 0 0 1 810 689)" fill="#000000" font-weight="bold" stroke="none"><tspan dx="0 " x="0" y="9">LandvormSubgroep</tspan></text><path stroke="#FFFFFF" d="M754 706H967" /><text transform="matrix(1 0 0 1 767 714)" fill="#000000" stroke="none"><tspan dx="0 " x="0" y="9">«Data element»</tspan></text><text transform="matrix(1 0 0 1 759 727)" fill="#3C3C3C" stroke="none"><tspan dx="0 " x="0" y="9">+ </tspan></text><text transform="matrix(1 0 0 1 776 727)" fill="#3C3C3C" stroke="none"><tspan dx="0 " x="0" y="9">landvormgroep: LandvormgroepWaarde</tspan></text><text transform="matrix(1 0 0 1 759 740)" fill="#3C3C3C" stroke="none"><tspan dx="0 " x="0" y="9">+ </tspan></text><text transform="matrix(1 0 0 1 776 740)" fill="#3C3C3C" stroke="none"><tspan dx="0 " x="0" y="9">genese: GeneseWaarde</tspan></text><text transform="matrix(1 0 0 1 759 753)" fill="#3C3C3C" stroke="none"><tspan dx="0 " x="0" y="9">+ </tspan></text><text transform="matrix(1 0 0 1 776 753)" fill="#3C3C3C" stroke="none"><tspan dx="0 " x="0" y="9">landvormSubgroepNummer: Integer</tspan></text><text transform="matrix(1 0 0 1 832 777)" fill="#000000" font-style="italic" stroke="none"><tspan dx="0 " x="0" y="9">(from Model)</tspan></text><path fill="#DFDFDF" stroke="none" d="M71 363C71 358 71 358 76 358H242C247 358 247 358 247 363v91C247 459 247 459 242 459H76C71 459 71 459 71 454V363" /><path fill="#FFFFFF" stroke="none" d="M68 360C68 355 68 355 73 355H239C244 355 244 355 244 360v91C244 456 244 456 239 456H73C68 456 68 456 68 451V360" /><path d="M68 360C68 355 68 355 73 355H239C244 355 244 355 244 360v91C244 456 244 456 239 456H73C68 456 68 456 68 451V360m0 0C68 355 68 355 73 355H239C244 355 244 355 244 360v91C244 456 244 456 239 456H73C68 456 68 456 68 451V360" /><rect x="68" y="355" width="176" height="101" /><text transform="matrix(1 0 0 1 125 361)" fill="#000000" stroke="none"><tspan dx="0 " x="0" y="9">«Objecttype»</tspan></text><text transform="matrix(1 0 0 1 137 374)" fill="#000000" font-weight="bold" stroke="none"><tspan dx="0 " x="0" y="9">Model::</tspan></text><text transform="matrix(1 0 0 1 68 386)" fill="#000000" font-weight="bold" stroke="none"><tspan dx="0 " x="0" y="9">DijkenVanGeomorfologischBelang</tspan></text><path d="M68 403H244" /><text transform="matrix(1 0 0 1 81 411)" fill="#000000" stroke="none"><tspan dx="0 " x="0" y="9">«Attribuutsoort»</tspan></text><text transform="matrix(1 0 0 1 73 424)" fill="#3C3C3C" stroke="none"><tspan dx="0 " x="0" y="9">+ </tspan></text><text transform="matrix(1 0 0 1 90 424)" fill="#3C3C3C" stroke="none"><tspan dx="0 " x="0" y="9">id: Identifier {id}</tspan></text><text transform="matrix(1 0 0 1 73 437)" fill="#3C3C3C" stroke="none"><tspan dx="0 " x="0" y="9">+ </tspan></text><text transform="matrix(1 0 0 1 90 437)" fill="#3C3C3C" stroke="none"><tspan dx="0 " x="0" y="9">geometrie: GM_Object</tspan></text><path fill="#DFDFDF" stroke="none" d="M382 548C382 543 382 543 387 543H508C513 543 513 543 513 548v49C513 602 513 602 508 602H387C382 602 382 602 382 597V548" /><path stroke="none" fill="#FBF9C6" d="M379 545C379 540 379 540 384 540H505C510 540 510 540 510 545v49C510 599 510 599 505 599H384C379 599 379 599 379 594V545" /><path stroke="#FFFFFF" d="M379 545C379 540 379 540 384 540H505C510 540 510 540 510 545v49C510 599 510 599 505 599H384C379 599 379 599 379 594V545m0 0C379 540 379 540 384 540H505C510 540 510 540 510 545v49C510 599 510 599 505 599H384C379 599 379 599 379 594V545" /><rect stroke="#FFFFFF" x="379" y="540" width="131" height="59" /><text transform="matrix(1 0 0 1 395 546)" fill="#000000" stroke="none"><tspan dx="0 " x="0" y="9">«Gestruktureerd dat...</tspan></text><text transform="matrix(1 0 0 1 377 559)" fill="#000000" font-weight="bold" stroke="none"><tspan dx="0 " x="0" y="9">GeomorfologischeEenheid</tspan></text><text transform="matrix(1 0 0 1 416 605)" fill="#000000" font-style="italic" stroke="none"><tspan dx="0 " x="0" y="9">(from Model)</tspan></text><path fill="#DFDFDF" stroke="none" d="M723 548C723 543 723 543 728 543H965C970 543 970 543 970 548v49C970 602 970 602 965 602H728C723 602 723 602 723 597V548" /><path stroke="none" fill="#D7FCCE" d="M720 545C720 540 720 540 725 540H962C967 540 967 540 967 545v49C967 599 967 599 962 599H725C720 599 720 599 720 594V545" /><path stroke="#C0C0C0" d="M720 545C720 540 720 540 725 540H962C967 540 967 540 967 545v49C967 599 967 599 962 599H725C720 599 720 599 720 594V545m0 0C720 540 720 540 725 540H962C967 540 967 540 967 545v49C967 599 967 599 962 599H725C720 599 720 599 720 594V545" /><rect stroke="#C0C0C0" x="720" y="540" width="247" height="59" /><text transform="matrix(1 0 0 1 787 546)" fill="#000000" stroke="none"><tspan dx="0 " x="0" y="9">«enumeration,Codelist»</tspan></text><text transform="matrix(1 0 0 1 825 559)" fill="#000000" font-weight="bold" stroke="none"><tspan dx="0 " x="0" y="9">Model::</tspan></text><text transform="matrix(1 0 0 1 719 571)" fill="#000000" font-weight="bold" stroke="none"><tspan dx="0 " x="0" y="9">GeomorfologischeKaartvlakCollectieTypeWaarde</tspan></text><path fill="#DFDFDF" stroke="none" d="M712 70C712 65 712 65 717 65H965C970 65 970 65 970 70v49C970 124 970 124 965 124H717C712 124 712 124 712 119V70" /><path stroke="none" fill="#FFFFFF" d="M709 67C709 62 709 62 714 62H962C967 62 967 62 967 67v49C967 121 967 121 962 121H714C709 121 709 121 709 116V67" /><path stroke="#C0C0C0" d="M709 67C709 62 709 62 714 62H962C967 62 967 62 967 67v49C967 121 967 121 962 121H714C709 121 709 121 709 116V67m0 0C709 62 709 62 714 62H962C967 62 967 62 967 67v49C967 121 967 121 962 121H714C709 121 709 121 709 116V67" /><rect stroke="#C0C0C0" x="709" y="62" width="258" height="59" /><text transform="matrix(1 0 0 1 812 68)" fill="#000000" stroke="none"><tspan dx="0 " x="0" y="9">«datatype»</tspan></text><text transform="matrix(1 0 0 1 729 81)" fill="#000000" font-weight="bold" stroke="none"><tspan dx="0 " x="0" y="9">Citation and responsible party information::</tspan></text><text transform="matrix(1 0 0 1 811 93)" fill="#000000" font-weight="bold" stroke="none"><tspan dx="0 " x="0" y="9">CI_Citation</tspan></text><path fill="#DFDFDF" stroke="none" d="M891 982C891 977 891 977 896 977h131C1032 977 1032 977 1032 982v49C1032 1036 1032 1036 1027 1036H896C891 1036 891 1036 891 1031V982" /><path stroke="none" fill="#FFFFFF" d="M888 979C888 974 888 974 893 974h131C1029 974 1029 974 1029 979v49C1029 1033 1029 1033 1024 1033H893C888 1033 888 1033 888 1028V979" /><path stroke="#FFFFFF" d="M888 979C888 974 888 974 893 974h131C1029 974 1029 974 1029 979v49C1029 1033 1029 1033 1024 1033H893C888 1033 888 1033 888 1028V979m0 0C888 974 888 974 893 974h131C1029 974 1029 974 1029 979v49C1029 1033 1029 1033 1024 1033H893C888 1033 888 1033 888 1028V979" /><rect stroke="#FFFFFF" x="888" y="974" width="141" height="59" /><text transform="matrix(1 0 0 1 902 980)" fill="#000000" stroke="none"><tspan dx="0 " x="0" y="9">«enumeration,Codelist»</tspan></text><text transform="matrix(1 0 0 1 940 993)" fill="#000000" font-weight="bold" stroke="none"><tspan dx="0 " x="0" y="9">Model::</tspan></text><text transform="matrix(1 0 0 1 889 1005)" fill="#000000" font-weight="bold" stroke="none"><tspan dx="0 " x="0" y="9">LandvormSubgroepWaarde</tspan></text><path d="M445 470v70m0 0l-6 -15m6 15l6 -15" /><path d="M663 406H563" /><path fill="#000000" stroke="none" d="M657 405.5C657 404.12 658.12 403 659.5 403C660.88 403 662 404.12 662 405.5C662 406.88 660.88 408 659.5 408C658.12 408 657 406.88 657 405.5" /><path d="M657 405.5C657 404.12 658.12 403 659.5 403C660.88 403 662 404.12 662 405.5C662 406.88 660.88 408 659.5 408C658.12 408 657 406.88 657 405.5" /><path fill="#000000" stroke="none" d="M563 405.5C563 404.12 564.12 403 565.5 403C566.88 403 568 404.12 568 405.5C568 406.88 566.88 408 565.5 408C564.12 408 563 406.88 563 405.5" /><path d="M563 405.5C563 404.12 564.12 403 565.5 403C566.88 403 568 404.12 568 405.5C568 406.88 566.88 408 565.5 408C564.12 408 563 406.88 563 405.5M569 406l15 -6m-15 6l15 6" /><path d="M888 355V122m0 0l6 15m-6 -15l-6 15" /><path d="M635 724H754m0 0l-15 6m15 -6l-15 -6" /><path d="M445 600v70m0 0l-6 -15m6 15l6 -15" /><path d="M348 255H164m0 0V355" /><path fill="#000000" stroke="none" d="M342 254.5C342 253.12 343.12 252 344.5 252C345.88 252 347 253.12 347 254.5C347 255.88 345.88 257 344.5 257C343.12 257 342 255.88 342 254.5" /><path d="M342 254.5C342 253.12 343.12 252 344.5 252C345.88 252 347 253.12 347 254.5C347 255.88 345.88 257 344.5 257C343.12 257 342 255.88 342 254.5" /><path fill="#000000" stroke="none" d="M161 351.5C161 350.12 162.12 349 163.5 349C164.88 349 166 350.12 166 351.5C166 352.88 164.88 354 163.5 354C162.12 354 161 352.88 161 351.5" /><path d="M161 351.5C161 350.12 162.12 349 163.5 349C164.88 349 166 350.12 166 351.5C166 352.88 164.88 354 163.5 354C162.12 354 161 352.88 161 351.5M164 349l-6 -15m6 15l6 -15" /><path d="M542 284h35m0 0V247m0 0H542m0 -6H788m0 0V122m0 0l6 15m-6 -15l-6 15" /><path d="M445 286v69m0 0l-6 -15m6 15l6 -15" /><path d="M445 182V117" /><path fill="#FCF2E3" d="M451 133H439l6 -16l6 16" /><g transform="matrix(1 0 0 -1 733 195)"><rect fill="#FFFFFF" stroke="none" x="0" width="94" y="-11" height="11" /></g><text transform="matrix(1 0 0 1 733 195)" fill="#000000" stroke="none"><tspan dx="0 " x="0" y="9">heeftDocumentatie</tspan></text><g transform="matrix(1 0 0 -1 718 127)"><rect fill="#FFFFFF" stroke="none" x="0" width="55" y="-11" height="11" /></g><text transform="matrix(1 0 0 1 718 127)" fill="#000000" stroke="none"><tspan dx="0 " x="0" y="9">+document</tspan></text><g transform="matrix(1 0 0 -1 717 140)"><rect fill="#FFFFFF" stroke="none" x="0" width="60" y="-11" height="11" /></g><text transform="matrix(1 0 0 1 717 140)" fill="#000000" stroke="none"><tspan dx="0 " x="0" y="9">«Relatierol»</tspan></text><g transform="matrix(1 0 0 -1 556 255)"><rect fill="#FFFFFF" stroke="none" x="0" width="44" y="-11" height="11" /></g><text transform="matrix(1 0 0 1 556 255)" fill="#000000" stroke="none"><tspan dx="0 " x="0" y="9">«Externe</tspan></text><g transform="matrix(1 0 0 -1 552 268)"><rect fill="#FFFFFF" stroke="none" x="0" width="54" y="-11" height="11" /></g><text transform="matrix(1 0 0 1 552 268)" fill="#000000" stroke="none"><tspan dx="0 " x="0" y="9">koppeling»</tspan></text><g transform="matrix(1 0 0 -1 578 432)"><rect fill="#FFFFFF" stroke="none" x="0" width="86" y="-11" height="11" /></g><text transform="matrix(1 0 0 1 578 432)" fill="#000000" stroke="none"><tspan dx="0 " x="0" y="9">beschrijft_vlakken</tspan></text><g transform="matrix(1 0 0 -1 563 373)"><rect fill="#FFFFFF" stroke="none" x="0" width="25" y="-11" height="11" /></g><text transform="matrix(1 0 0 1 563 373)" fill="#000000" stroke="none"><tspan dx="0 " x="0" y="9">+vlak</tspan></text><g transform="matrix(1 0 0 -1 563 386)"><rect fill="#FFFFFF" stroke="none" x="0" width="60" y="-11" height="11" /></g><text transform="matrix(1 0 0 1 563 386)" fill="#000000" stroke="none"><tspan dx="0 " x="0" y="9">«Relatierol»</tspan></text><g transform="matrix(1 0 0 -1 566 411)"><rect fill="#FFFFFF" stroke="none" x="0" width="17" y="-11" height="11" /></g><text transform="matrix(1 0 0 1 566 411)" fill="#000000" stroke="none"><tspan dx="0 " x="0" y="9">1..*</tspan></text><g transform="matrix(1 0 0 -1 366 491)"><rect fill="#FFFFFF" stroke="none" x="0" width="166" y="-11" height="11" /></g><text transform="matrix(1 0 0 1 366 491)" fill="#000000" stroke="none"><tspan dx="0 " x="0" y="9">heeft_geomorfologische_eenheid</tspan></text><g transform="matrix(1 0 0 -1 306 513)"><rect fill="#FFFFFF" stroke="none" x="0" width="136" y="-11" height="11" /></g><text transform="matrix(1 0 0 1 306 513)" fill="#000000" stroke="none"><tspan dx="0 " x="0" y="9">+geomorfologischeEenheid</tspan></text><g transform="matrix(1 0 0 -1 341 526)"><rect fill="#FFFFFF" stroke="none" x="0" width="60" y="-11" height="11" /></g><text transform="matrix(1 0 0 1 341 526)" fill="#000000" stroke="none"><tspan dx="0 " x="0" y="9">«Relatierol»</tspan></text><g transform="matrix(1 0 0 -1 669 707)"><rect fill="#FFFFFF" stroke="none" x="0" width="30" y="-11" height="11" /></g><text transform="matrix(1 0 0 1 669 707)" fill="#000000" stroke="none"><tspan dx="0 " x="0" y="9">omvat</tspan></text><g transform="matrix(1 0 0 -1 658 738)"><rect fill="#FFFFFF" stroke="none" x="0" width="100" y="-11" height="11" /></g><text transform="matrix(1 0 0 1 658 738)" fill="#000000" stroke="none"><tspan dx="0 " x="0" y="9">+landvormSubgroep</tspan></text><g transform="matrix(1 0 0 -1 676 751)"><rect fill="#FFFFFF" stroke="none" x="0" width="60" y="-11" height="11" /></g><text transform="matrix(1 0 0 1 676 751)" fill="#000000" stroke="none"><tspan dx="0 " x="0" y="9">«Relatierol»</tspan></text><g transform="matrix(1 0 0 -1 843 225)"><rect fill="#FFFFFF" stroke="none" x="0" width="94" y="-11" height="11" /></g><text transform="matrix(1 0 0 1 843 225)" fill="#000000" stroke="none"><tspan dx="0 " x="0" y="9">heeftDocumentatie</tspan></text><g transform="matrix(1 0 0 -1 823 125)"><rect fill="#FFFFFF" stroke="none" x="0" width="55" y="-11" height="11" /></g><text transform="matrix(1 0 0 1 823 125)" fill="#000000" stroke="none"><tspan dx="0 " x="0" y="9">+document</tspan></text><g transform="matrix(1 0 0 -1 822 138)"><rect fill="#FFFFFF" stroke="none" x="0" width="60" y="-11" height="11" /></g><text transform="matrix(1 0 0 1 822 138)" fill="#000000" stroke="none"><tspan dx="0 " x="0" y="9">«Relatierol»</tspan></text><g transform="matrix(1 0 0 -1 449 291)"><rect fill="#FFFFFF" stroke="none" x="0" width="6" y="-11" height="11" /></g><text transform="matrix(1 0 0 1 449 291)" fill="#000000" stroke="none"><tspan dx="0 " x="0" y="9">1</tspan></text><g transform="matrix(1 0 0 -1 370 308)"><rect fill="#FFFFFF" stroke="none" x="0" width="161" y="-11" height="11" /></g><text transform="matrix(1 0 0 1 370 308)" fill="#000000" stroke="none"><tspan dx="0 " x="0" y="9">heeft_geomorfologische_vlakken</tspan></text><g transform="matrix(1 0 0 -1 340 326)"><rect fill="#FFFFFF" stroke="none" x="0" width="113" y="-11" height="11" /></g><text transform="matrix(1 0 0 1 340 326)" fill="#000000" stroke="none"><tspan dx="0 " x="0" y="9">+geomorfologisch_vlak</tspan></text><g transform="matrix(1 0 0 -1 340 339)"><rect fill="#FFFFFF" stroke="none" x="0" width="60" y="-11" height="11" /></g><text transform="matrix(1 0 0 1 340 339)" fill="#000000" stroke="none"><tspan dx="0 " x="0" y="9">«Relatierol»</tspan></text><g transform="matrix(1 0 0 -1 453 337)"><rect fill="#FFFFFF" stroke="none" x="0" width="17" y="-11" height="11" /></g><text transform="matrix(1 0 0 1 453 337)" fill="#000000" stroke="none"><tspan dx="0 " x="0" y="9">1..*</tspan></text><g transform="matrix(1 0 0 -1 433 621)"><rect fill="#FFFFFF" stroke="none" x="0" width="25" y="-11" height="11" /></g><text transform="matrix(1 0 0 1 433 621)" fill="#000000" stroke="none"><tspan dx="0 " x="0" y="9">heeft</tspan></text><g transform="matrix(1 0 0 -1 382 643)"><rect fill="#FFFFFF" stroke="none" x="0" width="30" y="-11" height="11" /></g><text transform="matrix(1 0 0 1 382 643)" fill="#000000" stroke="none"><tspan dx="0 " x="0" y="9">+code</tspan></text><g transform="matrix(1 0 0 -1 382 656)"><rect fill="#FFFFFF" stroke="none" x="0" width="60" y="-11" height="11" /></g><text transform="matrix(1 0 0 1 382 656)" fill="#000000" stroke="none"><tspan dx="0 " x="0" y="9">«Relatierol»</tspan></text><g transform="matrix(1 0 0 -1 336 263)"><rect fill="#FFFFFF" stroke="none" x="0" width="6" y="-11" height="11" /></g><text transform="matrix(1 0 0 1 336 263)" fill="#000000" stroke="none"><tspan dx="0 " x="0" y="9">1</tspan></text><g transform="matrix(1 0 0 -1 166 258)"><rect fill="#FFFFFF" stroke="none" x="0" width="83" y="-11" height="11" /></g><text transform="matrix(1 0 0 1 166 258)" fill="#000000" stroke="none"><tspan dx="0 " x="0" y="9">heeft_dijkvlakken</tspan></text><g transform="matrix(1 0 0 -1 135 301)"><rect fill="#FFFFFF" stroke="none" x="0" width="42" y="-11" height="11" /></g><text transform="matrix(1 0 0 1 135 301)" fill="#000000" stroke="none"><tspan dx="0 " x="0" y="9">+dijkvlak</tspan></text><g transform="matrix(1 0 0 -1 135 314)"><rect fill="#FFFFFF" stroke="none" x="0" width="60" y="-11" height="11" /></g><text transform="matrix(1 0 0 1 135 314)" fill="#000000" stroke="none"><tspan dx="0 " x="0" y="9">«Relatierol»</tspan></text><g transform="matrix(1 0 0 -1 172 337)"><rect fill="#FFFFFF" stroke="none" x="0" width="17" y="-11" height="11" /></g><text transform="matrix(1 0 0 1 172 337)" fill="#000000" stroke="none"><tspan dx="0 " x="0" y="9">0..*</tspan></text></g></g></g></g></svg>