<?xml version="1.0" encoding="utf-8"?><svg version="1.1" preserveAspectRatio="xMidYMid" xml:space="preserve" width="812.1300299999999pt" height="663.1855800000001pt" viewBox="15.732869999999998 36.53352 812.1300299999999 663.1855800000001" xmlns="http://www.w3.org/2000/svg" xmlns:xlink="http://www.w3.org/1999/xlink"><g transform="matrix(1 0 0 -1 0 825)"><g stroke="#000000" fill="none" fill-rule="evenodd" stroke-width="1" stroke-linecap="round" stroke-linejoin="round" stroke-miterlimit="3" letter-spacing="normal" font-weight="normal" font-style="normal" baseline-shift="0"><g transform="matrix(0.75 0 0 0.75 0 825.099976)"><g transform="matrix(0.958904 0 0 -0.95986 0 0)" font-family="ArialUnicode" font-size="10"><path fill="#DFDFDF" stroke="none" d="M351 190C351 185 351 185 356 185H539C544 185 544 185 544 190v93C544 288 544 288 539 288H356C351 288 351 288 351 283V190" /><path fill="#FFFFFF" stroke="none" d="M348 187C348 182 348 182 353 182H536C541 182 541 182 541 187v93C541 285 541 285 536 285H353C348 285 348 285 348 280V187" /><path d="M348 187C348 182 348 182 353 182H536C541 182 541 182 541 187v93C541 285 541 285 536 285H353C348 285 348 285 348 280V187m0 0C348 182 348 182 353 182H536C541 182 541 182 541 187v93C541 285 541 285 536 285H353C348 285 348 285 348 280V187" /><rect x="348" y="182" width="193" height="103" /><text transform="matrix(1 0 0 1 413 188)" fill="#000000" stroke="none"><tspan dx="0 " x="0" y="9">«Objecttype»</tspan></text><text transform="matrix(1 0 0 1 365 201)" fill="#000000" font-weight="bold" stroke="none"><tspan dx="0 " x="0" y="9">Model::GeomorfologischeKaart</tspan></text><path d="M348 218H541" /><text transform="matrix(1 0 0 1 361 226)" fill="#000000" stroke="none"><tspan dx="0 " x="0" y="9">«Attribuutsoort»</tspan></text><text transform="matrix(1 0 0 1 353 239)" fill="#3C3C3C" stroke="none"><tspan dx="0 " x="0" y="9">+ </tspan></text><text transform="matrix(1 0 0 1 370 239)" fill="#3C3C3C" stroke="none"><tspan dx="0 " x="0" y="9">id: Identifier {id}</tspan></text><text transform="matrix(1 0 0 1 353 252)" fill="#3C3C3C" stroke="none"><tspan dx="0 " x="0" y="9">+ </tspan></text><text transform="matrix(1 0 0 1 370 252)" fill="#3C3C3C" stroke="none"><tspan dx="0 " x="0" y="9">schaal: int</tspan></text><text transform="matrix(1 0 0 1 353 265)" fill="#3C3C3C" stroke="none"><tspan dx="0 " x="0" y="9">+ </tspan></text><text transform="matrix(1 0 0 1 370 265)" fill="#3C3C3C" stroke="none"><tspan dx="0 " x="0" y="9">extent: EX_Extent</tspan></text><path fill="#DFDFDF" stroke="none" d="M318 370C318 365 318 365 323 365H549C554 365 554 365 554 370V474C554 479 554 479 549 479H323C318 479 318 479 318 474V370" /><path fill="#FFFFFF" stroke="none" d="M315 367C315 362 315 362 320 362H546C551 362 551 362 551 367V471C551 476 551 476 546 476H320C315 476 315 476 315 471V367" /><path d="M315 367C315 362 315 362 320 362H546C551 362 551 362 551 367V471C551 476 551 476 546 476H320C315 476 315 476 315 471V367m0 0C315 362 315 362 320 362H546C551 362 551 362 551 367V471C551 476 551 476 546 476H320C315 476 315 476 315 471V367" /><rect x="315" y="362" width="236" height="114" /><text transform="matrix(1 0 0 1 402 368)" fill="#000000" stroke="none"><tspan dx="0 " x="0" y="9">«Objecttype»</tspan></text><text transform="matrix(1 0 0 1 346 381)" fill="#000000" font-weight="bold" stroke="none"><tspan dx="0 " x="0" y="9">Model::GeomorfologischKaartvlak</tspan></text><path d="M315 398H551" /><text transform="matrix(1 0 0 1 328 406)" fill="#000000" stroke="none"><tspan dx="0 " x="0" y="9">«Attribuutsoort»</tspan></text><text transform="matrix(1 0 0 1 320 419)" fill="#3C3C3C" stroke="none"><tspan dx="0 " x="0" y="9">+ </tspan></text><text transform="matrix(1 0 0 1 337 419)" fill="#3C3C3C" stroke="none"><tspan dx="0 " x="0" y="9">id: Identifier {id}</tspan></text><text transform="matrix(1 0 0 1 320 432)" fill="#3C3C3C" stroke="none"><tspan dx="0 " x="0" y="9">+ </tspan></text><text transform="matrix(1 0 0 1 337 432)" fill="#3C3C3C" stroke="none"><tspan dx="0 " x="0" y="9">geometrie: GM_Object</tspan></text><text transform="matrix(1 0 0 1 320 445)" fill="#3C3C3C" stroke="none"><tspan dx="0 " x="0" y="9">+ </tspan></text><text transform="matrix(1 0 0 1 337 445)" fill="#3C3C3C" stroke="none"><tspan dx="0 " x="0" y="9">ahnDatum: date</tspan></text><text transform="matrix(1 0 0 1 320 458)" fill="#3C3C3C" stroke="none"><tspan dx="0 " x="0" y="9">+ </tspan></text><text transform="matrix(1 0 0 1 337 458)" fill="#3C3C3C" stroke="none"><tspan dx="0 " x="0" y="9">legendaEenheid: LandvormSubgroep</tspan></text><path fill="#DFDFDF" stroke="none" d="M692 363C692 358 692 358 697 358H991C996 358 996 358 996 363v87C996 455 996 455 991 455H697C692 455 692 455 692 450V363" /><path fill="#FFFFFF" stroke="none" d="M689 360C689 355 689 355 694 355H988C993 355 993 355 993 360v87C993 452 993 452 988 452H694C689 452 689 452 689 447V360" /><path d="M689 360C689 355 689 355 694 355H988C993 355 993 355 993 360v87C993 452 993 452 988 452H694C689 452 689 452 689 447V360m0 0C689 355 689 355 694 355H988C993 355 993 355 993 360v87C993 452 993 452 988 452H694C689 452 689 452 689 447V360" /><rect x="689" y="355" width="304" height="97" /><text transform="matrix(1 0 0 1 810 361)" fill="#000000" stroke="none"><tspan dx="0 " x="0" y="9">«Objecttype»</tspan></text><text transform="matrix(1 0 0 1 728 374)" fill="#000000" font-weight="bold" stroke="none"><tspan dx="0 " x="0" y="9">Model::GeomorfologischeKaartvlakCollectie</tspan></text><path d="M689 391H993" /><text transform="matrix(1 0 0 1 702 399)" fill="#000000" stroke="none"><tspan dx="0 " x="0" y="9">«Attribuutsoort»</tspan></text><text transform="matrix(1 0 0 1 694 412)" fill="#3C3C3C" stroke="none"><tspan dx="0 " x="0" y="9">+ </tspan></text><text transform="matrix(1 0 0 1 711 412)" fill="#3C3C3C" stroke="none"><tspan dx="0 " x="0" y="9">id: Identifier {id}</tspan></text><text transform="matrix(1 0 0 1 694 425)" fill="#3C3C3C" stroke="none"><tspan dx="0 " x="0" y="9">+ </tspan></text><text transform="matrix(1 0 0 1 711 425)" fill="#3C3C3C" stroke="none"><tspan dx="0 " x="0" y="9">naam: string</tspan></text><text transform="matrix(1 0 0 1 694 438)" fill="#3C3C3C" stroke="none"><tspan dx="0 " x="0" y="9">+ </tspan></text><text transform="matrix(1 0 0 1 711 438)" fill="#3C3C3C" stroke="none"><tspan dx="0 " x="0" y="9">type: GeomorfologischeKaartvlakCollectieTypeWaarde</tspan></text><path fill="#DFDFDF" stroke="none" d="M339 76C339 71 339 71 344 71H535C540 71 540 71 540 76v44C540 125 540 125 535 125H344C339 125 339 125 339 120V76" /><path stroke="none" fill="#FFFFFF" d="M336 73C336 68 336 68 341 68H532C537 68 537 68 537 73v44C537 122 537 122 532 122H341C336 122 336 122 336 117V73" /><path stroke="#C0C0C0" d="M336 73C336 68 336 68 341 68H532C537 68 537 68 537 73v44C537 122 537 122 532 122H341C336 122 336 122 336 117V73m0 0C336 68 336 68 341 68H532C537 68 537 68 537 73v44C537 122 537 122 532 122H341C336 122 336 122 336 117V73" /><rect stroke="#C0C0C0" x="336" y="68" width="201" height="54" /><text transform="matrix(1 0 0 1 402 74)" fill="#000000" stroke="none"><tspan dx="0 " x="0" y="9">«featureType»</tspan></text><text transform="matrix(1 0 0 1 354 87)" fill="#000000" font-weight="bold" font-style="italic" stroke="none"><tspan dx="0 " x="0" y="9">FeatureTypes::RegistratieObject</tspan></text><path fill="#DFDFDF" stroke="none" d="M247 677C247 672 247 672 252 672H622C627 672 627 672 627 677V807C627 812 627 812 622 812H252C247 812 247 812 247 807V677" /><path fill="#FBF9C6" stroke="none" d="M244 674C244 669 244 669 249 669H619C624 669 624 669 624 674V804C624 809 624 809 619 809H249C244 809 244 809 244 804V674" /><path d="M244 674C244 669 244 669 249 669H619C624 669 624 669 624 674V804C624 809 624 809 619 809H249C244 809 244 809 244 804V674m0 0C244 669 244 669 249 669H619C624 669 624 669 624 674V804C624 809 624 809 619 809H249C244 809 244 809 244 804V674" /><rect x="244" y="669" width="380" height="140" /><text transform="matrix(1 0 0 1 407 675)" fill="#000000" stroke="none"><tspan dx="0 " x="0" y="9">«Datatype»</tspan></text><text transform="matrix(1 0 0 1 374 688)" fill="#000000" font-weight="bold" stroke="none"><tspan dx="0 " x="0" y="9">GeomorfologischeCode</tspan></text><path d="M244 705H624" /><text transform="matrix(1 0 0 1 249 709)" fill="#3C3C3C" stroke="none"><tspan dx="0 " x="0" y="9">+ </tspan></text><text transform="matrix(1 0 0 1 266 709)" fill="#3C3C3C" stroke="none"><tspan dx="0 " x="0" y="9">reliëf: ReliëfWaarde</tspan></text><text transform="matrix(1 0 0 1 249 722)" fill="#3C3C3C" stroke="none"><tspan dx="0 " x="0" y="9">+ </tspan></text><text transform="matrix(1 0 0 1 266 722)" fill="#3C3C3C" stroke="none"><tspan dx="0 " x="0" y="9">landvormSubgroep: LandvormSubgroepWaarde</tspan></text><text transform="matrix(1 0 0 1 249 735)" fill="#3C3C3C" stroke="none"><tspan dx="0 " x="0" y="9">+ </tspan></text><text transform="matrix(1 0 0 1 266 735)" fill="#3C3C3C" stroke="none"><tspan dx="0 " x="0" y="9">actiefVormingsproces: boolean</tspan></text><text transform="matrix(1 0 0 1 249 748)" fill="#3C3C3C" stroke="none"><tspan dx="0 " x="0" y="9">+ </tspan></text><text transform="matrix(1 0 0 1 266 748)" fill="#3C3C3C" stroke="none"><tspan dx="0 " x="0" y="9">toevoegingBovengrond: ToevoegingBovengrondWaarde</tspan></text><text transform="matrix(1 0 0 1 249 761)" fill="#3C3C3C" stroke="none"><tspan dx="0 " x="0" y="9">+ </tspan></text><text transform="matrix(1 0 0 1 266 761)" fill="#3C3C3C" stroke="none"><tspan dx="0 " x="0" y="9">toevoegingLokaleReliëfaspecten: ToevoegingLokaleReliëfaspectenWaarde</tspan></text><text transform="matrix(1 0 0 1 257 778)" fill="#000000" stroke="none"><tspan dx="0 " x="0" y="9">«Voidable»</tspan></text><text transform="matrix(1 0 0 1 249 791)" fill="#3C3C3C" stroke="none"><tspan dx="0 " x="0" y="9">+ </tspan></text><text transform="matrix(1 0 0 1 266 791)" fill="#3C3C3C" stroke="none"><tspan dx="0 " x="0" y="9">actieveVormbepalendeFactoren: ActieveVormbepalendeFactorenWaarde</tspan></text><text transform="matrix(1 0 0 1 406 815)" fill="#000000" font-style="italic" stroke="none"><tspan dx="0 " x="0" y="9">(from Model)</tspan></text><path fill="#DFDFDF" stroke="none" d="M36 898C36 893 36 893 41 893H158C163 893 163 893 163 898v49C163 952 163 952 158 952H41C36 952 36 952 36 947V898" /><path stroke="none" fill="#D7FCCE" d="M33 895C33 890 33 890 38 890H155C160 890 160 890 160 895v49C160 949 160 949 155 949H38C33 949 33 949 33 944V895" /><path stroke="#C0C0C0" d="M33 895C33 890 33 890 38 890H155C160 890 160 890 160 895v49C160 949 160 949 155 949H38C33 949 33 949 33 944V895m0 0C33 890 33 890 38 890H155C160 890 160 890 160 895v49C160 949 160 949 155 949H38C33 949 33 949 33 944V895" /><rect stroke="#C0C0C0" x="33" y="890" width="127" height="59" /><text transform="matrix(1 0 0 1 48 896)" fill="#000000" stroke="none"><tspan dx="0 " x="0" y="9">«enumeration,Cod...</tspan></text><text transform="matrix(1 0 0 1 44 909)" fill="#000000" font-weight="bold" stroke="none"><tspan dx="0 " x="0" y="9">Model::ReliëfWaarde</tspan></text><path fill="#DFDFDF" stroke="none" d="M891 904C891 899 891 899 896 899h112C1013 899 1013 899 1013 904v49C1013 958 1013 958 1008 958H896C891 958 891 958 891 953V904" /><path stroke="none" fill="#D7FCCE" d="M888 901C888 896 888 896 893 896h112C1010 896 1010 896 1010 901v49C1010 955 1010 955 1005 955H893C888 955 888 955 888 950V901" /><path stroke="#C0C0C0" d="M888 901C888 896 888 896 893 896h112C1010 896 1010 896 1010 901v49C1010 955 1010 955 1005 955H893C888 955 888 955 888 950V901m0 0C888 896 888 896 893 896h112C1010 896 1010 896 1010 901v49C1010 955 1010 955 1005 955H893C888 955 888 955 888 950V901" /><rect stroke="#C0C0C0" x="888" y="896" width="122" height="59" /><text transform="matrix(1 0 0 1 904 902)" fill="#000000" stroke="none"><tspan dx="0 " x="0" y="9">«enumeration,Co...</tspan></text><text transform="matrix(1 0 0 1 930 915)" fill="#000000" font-weight="bold" stroke="none"><tspan dx="0 " x="0" y="9">Model::</tspan></text><text transform="matrix(1 0 0 1 889 927)" fill="#000000" font-weight="bold" stroke="none"><tspan dx="0 " x="0" y="9">LandvormgroepWaarde</tspan></text><path fill="#DFDFDF" stroke="none" d="M1051 903C1051 898 1051 898 1056 898h79C1140 898 1140 898 1140 903v49C1140 957 1140 957 1135 957h-79C1051 957 1051 957 1051 952V903" /><path stroke="none" fill="#D7FCCE" d="M1048 900C1048 895 1048 895 1053 895h79C1137 895 1137 895 1137 900v49C1137 954 1137 954 1132 954h-79C1048 954 1048 954 1048 949V900" /><path stroke="#C0C0C0" d="M1048 900C1048 895 1048 895 1053 895h79C1137 895 1137 895 1137 900v49C1137 954 1137 954 1132 954h-79C1048 954 1048 954 1048 949V900m0 0C1048 895 1048 895 1053 895h79C1137 895 1137 895 1137 900v49C1137 954 1137 954 1132 954h-79C1048 954 1048 954 1048 949V900" /><rect stroke="#C0C0C0" x="1048" y="895" width="89" height="59" /><text transform="matrix(1 0 0 1 1061 901)" fill="#000000" stroke="none"><tspan dx="0 " x="0" y="9">«enumerati...</tspan></text><text transform="matrix(1 0 0 1 1074 914)" fill="#000000" font-weight="bold" stroke="none"><tspan dx="0 " x="0" y="9">Model::</tspan></text><text transform="matrix(1 0 0 1 1054 926)" fill="#000000" font-weight="bold" stroke="none"><tspan dx="0 " x="0" y="9">GeneseWaarde</tspan></text><path fill="#DFDFDF" stroke="none" d="M439 901C439 896 439 896 444 896H595C600 896 600 896 600 901v49C600 955 600 955 595 955H444C439 955 439 955 439 950V901" /><path stroke="none" fill="#D7FCCE" d="M436 898C436 893 436 893 441 893H592C597 893 597 893 597 898v49C597 952 597 952 592 952H441C436 952 436 952 436 947V898" /><path stroke="#C0C0C0" d="M436 898C436 893 436 893 441 893H592C597 893 597 893 597 898v49C597 952 597 952 592 952H441C436 952 436 952 436 947V898m0 0C436 893 436 893 441 893H592C597 893 597 893 597 898v49C597 952 597 952 592 952H441C436 952 436 952 436 947V898" /><rect stroke="#C0C0C0" x="436" y="893" width="161" height="59" /><text transform="matrix(1 0 0 1 460 899)" fill="#000000" stroke="none"><tspan dx="0 " x="0" y="9">«enumeration,Codelist»</tspan></text><text transform="matrix(1 0 0 1 498 912)" fill="#000000" font-weight="bold" stroke="none"><tspan dx="0 " x="0" y="9">Model::</tspan></text><text transform="matrix(1 0 0 1 436 924)" fill="#000000" font-weight="bold" stroke="none"><tspan dx="0 " x="0" y="9">ToevoegingBovengrondWaarde</tspan></text><path fill="#DFDFDF" stroke="none" d="M196 898C196 893 196 893 201 893H398C403 893 403 893 403 898v49C403 952 403 952 398 952H201C196 952 196 952 196 947V898" /><path stroke="none" fill="#D7FCCE" d="M193 895C193 890 193 890 198 890H395C400 890 400 890 400 895v49C400 949 400 949 395 949H198C193 949 193 949 193 944V895" /><path stroke="#C0C0C0" d="M193 895C193 890 193 890 198 890H395C400 890 400 890 400 895v49C400 949 400 949 395 949H198C193 949 193 949 193 944V895m0 0C193 890 193 890 198 890H395C400 890 400 890 400 895v49C400 949 400 949 395 949H198C193 949 193 949 193 944V895" /><rect stroke="#C0C0C0" x="193" y="890" width="207" height="59" /><text transform="matrix(1 0 0 1 240 896)" fill="#000000" stroke="none"><tspan dx="0 " x="0" y="9">«enumeration,Codelist»</tspan></text><text transform="matrix(1 0 0 1 278 909)" fill="#000000" font-weight="bold" stroke="none"><tspan dx="0 " x="0" y="9">Model::</tspan></text><text transform="matrix(1 0 0 1 193 921)" fill="#000000" font-weight="bold" stroke="none"><tspan dx="0 " x="0" y="9">ToevoegingLokaleReliëfaspectenWaarde</tspan></text><path fill="#DFDFDF" stroke="none" d="M633 907C633 902 633 902 638 902H830C835 902 835 902 835 907v49C835 961 835 961 830 961H638C633 961 633 961 633 956V907" /><path stroke="none" fill="#D7FCCE" d="M630 904C630 899 630 899 635 899H827C832 899 832 899 832 904v49C832 958 832 958 827 958H635C630 958 630 958 630 953V904" /><path stroke="#C0C0C0" d="M630 904C630 899 630 899 635 899H827C832 899 832 899 832 904v49C832 958 832 958 827 958H635C630 958 630 958 630 953V904m0 0C630 899 630 899 635 899H827C832 899 832 899 832 904v49C832 958 832 958 827 958H635C630 958 630 958 630 953V904" /><rect stroke="#C0C0C0" x="630" y="899" width="202" height="59" /><text transform="matrix(1 0 0 1 675 905)" fill="#000000" stroke="none"><tspan dx="0 " x="0" y="9">«enumeration,Codelist»</tspan></text><text transform="matrix(1 0 0 1 712 918)" fill="#000000" font-weight="bold" stroke="none"><tspan dx="0 " x="0" y="9">Model::</tspan></text><text transform="matrix(1 0 0 1 630 930)" fill="#000000" font-weight="bold" stroke="none"><tspan dx="0 " x="0" y="9">ActieveVormbepalendeFactorenWaarde</tspan></text><path fill="#DFDFDF" stroke="none" d="M757 706C757 701 757 701 762 701H965C970 701 970 701 970 706v74C970 785 970 785 965 785H762C757 785 757 785 757 780V706" /><path fill="#FBF9C6" stroke="none" d="M754 703C754 698 754 698 759 698H962C967 698 967 698 967 703v74C967 782 967 782 962 782H759C754 782 754 782 754 777V703" /><path d="M754 703C754 698 754 698 759 698H962C967 698 967 698 967 703v74C967 782 967 782 962 782H759C754 782 754 782 754 777V703m0 0C754 698 754 698 759 698H962C967 698 967 698 967 703v74C967 782 967 782 962 782H759C754 782 754 782 754 777V703" /><rect x="754" y="698" width="213" height="84" /><text transform="matrix(1 0 0 1 834 704)" fill="#000000" stroke="none"><tspan dx="0 " x="0" y="9">«Datatype»</tspan></text><text transform="matrix(1 0 0 1 810 717)" fill="#000000" font-weight="bold" stroke="none"><tspan dx="0 " x="0" y="9">LandvormSubgroep</tspan></text><path d="M754 734H967" /><text transform="matrix(1 0 0 1 759 738)" fill="#3C3C3C" stroke="none"><tspan dx="0 " x="0" y="9">+ </tspan></text><text transform="matrix(1 0 0 1 776 738)" fill="#3C3C3C" stroke="none"><tspan dx="0 " x="0" y="9">landvormgroep: LandvormgroepWaarde</tspan></text><text transform="matrix(1 0 0 1 759 751)" fill="#3C3C3C" stroke="none"><tspan dx="0 " x="0" y="9">+ </tspan></text><text transform="matrix(1 0 0 1 776 751)" fill="#3C3C3C" stroke="none"><tspan dx="0 " x="0" y="9">genese: GeneseWaarde</tspan></text><text transform="matrix(1 0 0 1 759 764)" fill="#3C3C3C" stroke="none"><tspan dx="0 " x="0" y="9">+ </tspan></text><text transform="matrix(1 0 0 1 776 764)" fill="#3C3C3C" stroke="none"><tspan dx="0 " x="0" y="9">landvormSubgroepNummer: int</tspan></text><text transform="matrix(1 0 0 1 832 788)" fill="#000000" font-style="italic" stroke="none"><tspan dx="0 " x="0" y="9">(from Model)</tspan></text><path fill="#DFDFDF" stroke="none" d="M71 375C71 370 71 370 76 370H242C247 370 247 370 247 375v91C247 471 247 471 242 471H76C71 471 71 471 71 466V375" /><path fill="#FFFFFF" stroke="none" d="M68 372C68 367 68 367 73 367H239C244 367 244 367 244 372v91C244 468 244 468 239 468H73C68 468 68 468 68 463V372" /><path d="M68 372C68 367 68 367 73 367H239C244 367 244 367 244 372v91C244 468 244 468 239 468H73C68 468 68 468 68 463V372m0 0C68 367 68 367 73 367H239C244 367 244 367 244 372v91C244 468 244 468 239 468H73C68 468 68 468 68 463V372" /><rect x="68" y="367" width="176" height="101" /><text transform="matrix(1 0 0 1 125 373)" fill="#000000" stroke="none"><tspan dx="0 " x="0" y="9">«Objecttype»</tspan></text><text transform="matrix(1 0 0 1 137 386)" fill="#000000" font-weight="bold" stroke="none"><tspan dx="0 " x="0" y="9">Model::</tspan></text><text transform="matrix(1 0 0 1 68 398)" fill="#000000" font-weight="bold" stroke="none"><tspan dx="0 " x="0" y="9">DijkenVanGeomorfologischBelang</tspan></text><path d="M68 415H244" /><text transform="matrix(1 0 0 1 81 423)" fill="#000000" stroke="none"><tspan dx="0 " x="0" y="9">«Attribuutsoort»</tspan></text><text transform="matrix(1 0 0 1 73 436)" fill="#3C3C3C" stroke="none"><tspan dx="0 " x="0" y="9">+ </tspan></text><text transform="matrix(1 0 0 1 90 436)" fill="#3C3C3C" stroke="none"><tspan dx="0 " x="0" y="9">id: Identifier {id}</tspan></text><text transform="matrix(1 0 0 1 73 449)" fill="#3C3C3C" stroke="none"><tspan dx="0 " x="0" y="9">+ </tspan></text><text transform="matrix(1 0 0 1 90 449)" fill="#3C3C3C" stroke="none"><tspan dx="0 " x="0" y="9">geometrie: GM_Object</tspan></text><path fill="#DFDFDF" stroke="none" d="M372 548C372 543 372 543 377 543H498C503 543 503 543 503 548v49C503 602 503 602 498 602H377C372 602 372 602 372 597V548" /><path fill="#FBF9C6" stroke="none" d="M369 545C369 540 369 540 374 540H495C500 540 500 540 500 545v49C500 599 500 599 495 599H374C369 599 369 599 369 594V545" /><path d="M369 545C369 540 369 540 374 540H495C500 540 500 540 500 545v49C500 599 500 599 495 599H374C369 599 369 599 369 594V545m0 0C369 540 369 540 374 540H495C500 540 500 540 500 545v49C500 599 500 599 495 599H374C369 599 369 599 369 594V545" /><rect x="369" y="540" width="131" height="59" /><text transform="matrix(1 0 0 1 408 546)" fill="#000000" stroke="none"><tspan dx="0 " x="0" y="9">«Datatype»</tspan></text><text transform="matrix(1 0 0 1 367 559)" fill="#000000" font-weight="bold" stroke="none"><tspan dx="0 " x="0" y="9">GeomorfologischeEenheid</tspan></text><text transform="matrix(1 0 0 1 406 605)" fill="#000000" font-style="italic" stroke="none"><tspan dx="0 " x="0" y="9">(from Model)</tspan></text><path fill="#DFDFDF" stroke="none" d="M718 521C718 516 718 516 723 516H960C965 516 965 516 965 521v49C965 575 965 575 960 575H723C718 575 718 575 718 570V521" /><path stroke="none" fill="#D7FCCE" d="M715 518C715 513 715 513 720 513H957C962 513 962 513 962 518v49C962 572 962 572 957 572H720C715 572 715 572 715 567V518" /><path stroke="#C0C0C0" d="M715 518C715 513 715 513 720 513H957C962 513 962 513 962 518v49C962 572 962 572 957 572H720C715 572 715 572 715 567V518m0 0C715 513 715 513 720 513H957C962 513 962 513 962 518v49C962 572 962 572 957 572H720C715 572 715 572 715 567V518" /><rect stroke="#C0C0C0" x="715" y="513" width="247" height="59" /><text transform="matrix(1 0 0 1 782 519)" fill="#000000" stroke="none"><tspan dx="0 " x="0" y="9">«enumeration,Codelist»</tspan></text><text transform="matrix(1 0 0 1 820 532)" fill="#000000" font-weight="bold" stroke="none"><tspan dx="0 " x="0" y="9">Model::</tspan></text><text transform="matrix(1 0 0 1 714 544)" fill="#000000" font-weight="bold" stroke="none"><tspan dx="0 " x="0" y="9">GeomorfologischeKaartvlakCollectieTypeWaarde</tspan></text><path fill="#DFDFDF" stroke="none" d="M656 70C656 65 656 65 661 65H909C914 65 914 65 914 70v49C914 124 914 124 909 124H661C656 124 656 124 656 119V70" /><path stroke="none" fill="#FFFFFF" d="M653 67C653 62 653 62 658 62H906C911 62 911 62 911 67v49C911 121 911 121 906 121H658C653 121 653 121 653 116V67" /><path stroke="#C0C0C0" d="M653 67C653 62 653 62 658 62H906C911 62 911 62 911 67v49C911 121 911 121 906 121H658C653 121 653 121 653 116V67m0 0C653 62 653 62 658 62H906C911 62 911 62 911 67v49C911 121 911 121 906 121H658C653 121 653 121 653 116V67" /><rect stroke="#C0C0C0" x="653" y="62" width="258" height="59" /><text transform="matrix(1 0 0 1 756 68)" fill="#000000" stroke="none"><tspan dx="0 " x="0" y="9">«datatype»</tspan></text><text transform="matrix(1 0 0 1 673 81)" fill="#000000" font-weight="bold" stroke="none"><tspan dx="0 " x="0" y="9">Citation and responsible party information::</tspan></text><text transform="matrix(1 0 0 1 755 93)" fill="#000000" font-weight="bold" stroke="none"><tspan dx="0 " x="0" y="9">CI_Citation</tspan></text><path d="M542 234H735m0 0V122m0 0l6 15m-6 -15l-6 15" /><path d="M542 284h35m0 0V247m0 0H542" /><path d="M443 182V123" /><path fill="#FCF2E3" d="M449 139H437l6 -16l6 16" /><path d="M552 409H689" /><path fill="#FCF2E3" d="M679 414l10 -5l-10 -5l-10 5l10 5" /><path d="M552 409l15 6m-15 -6l15 -6" /><path d="M445 362V286" /><path fill="#000000" d="M450 296l-5 -10l-5 10l5 10l5 -10" /><path d="M445 362l6 -15m-6 15l-6 -15" /><path d="M433 477l1 63m0 0l-6 -15m6 15l6 -15" /><path d="M850 355V122m0 0l6 15m-6 -15l-6 15" /><path d="M625 739H754m0 0l-15 6m15 -6l-15 -6" /><path d="M163 367V255m0 0H348" /><path fill="#000000" stroke="none" d="M342 254.5C342 253.12 343.12 252 344.5 252C345.88 252 347 253.12 347 254.5C347 255.88 345.88 257 344.5 257C343.12 257 342 255.88 342 254.5" /><path d="M342 254.5C342 253.12 343.12 252 344.5 252C345.88 252 347 253.12 347 254.5C347 255.88 345.88 257 344.5 257C343.12 257 342 255.88 342 254.5" /><path fill="#000000" d="M332 260l10 -5l-10 -5l-10 5l10 5" /><path d="M163 367l6 -15m-6 15l-6 -15" /><path d="M434 600v69m0 0l-6 -15m6 15l6 -15" /><g transform="matrix(1 0 0 -1 105 325)"><rect fill="#FFFFFF" stroke="none" x="0" width="42" y="-11" height="11" /></g><text transform="matrix(1 0 0 1 105 325)" fill="#000000" stroke="none"><tspan dx="0 " x="0" y="9">+dijkvlak</tspan></text><g transform="matrix(1 0 0 -1 97 338)"><rect fill="#FFFFFF" stroke="none" x="0" width="60" y="-11" height="11" /></g><text transform="matrix(1 0 0 1 97 338)" fill="#000000" stroke="none"><tspan dx="0 " x="0" y="9">«Relatierol»</tspan></text><g transform="matrix(1 0 0 -1 176 349)"><rect fill="#FFFFFF" stroke="none" x="0" width="17" y="-11" height="11" /></g><text transform="matrix(1 0 0 1 176 349)" fill="#000000" stroke="none"><tspan dx="0 " x="0" y="9">0..*</tspan></text><g transform="matrix(1 0 0 -1 170 241)"><rect fill="#FFFFFF" stroke="none" x="0" width="83" y="-11" height="11" /></g><text transform="matrix(1 0 0 1 170 241)" fill="#000000" stroke="none"><tspan dx="0 " x="0" y="9">heeft_dijkvlakken</tspan></text><g transform="matrix(1 0 0 -1 333 334)"><rect fill="#FFFFFF" stroke="none" x="0" width="113" y="-11" height="11" /></g><text transform="matrix(1 0 0 1 333 334)" fill="#000000" stroke="none"><tspan dx="0 " x="0" y="9">+geomorfologisch_vlak</tspan></text><g transform="matrix(1 0 0 -1 333 347)"><rect fill="#FFFFFF" stroke="none" x="0" width="60" y="-11" height="11" /></g><text transform="matrix(1 0 0 1 333 347)" fill="#000000" stroke="none"><tspan dx="0 " x="0" y="9">«Relatierol»</tspan></text><g transform="matrix(1 0 0 -1 465 344)"><rect fill="#FFFFFF" stroke="none" x="0" width="17" y="-11" height="11" /></g><text transform="matrix(1 0 0 1 465 344)" fill="#000000" stroke="none"><tspan dx="0 " x="0" y="9">1..*</tspan></text><g transform="matrix(1 0 0 -1 370 315)"><rect fill="#FFFFFF" stroke="none" x="0" width="161" y="-11" height="11" /></g><text transform="matrix(1 0 0 1 370 315)" fill="#000000" stroke="none"><tspan dx="0 " x="0" y="9">heeft_geomorfologische_vlakken</tspan></text><g transform="matrix(1 0 0 -1 553 376)"><rect fill="#FFFFFF" stroke="none" x="0" width="25" y="-11" height="11" /></g><text transform="matrix(1 0 0 1 553 376)" fill="#000000" stroke="none"><tspan dx="0 " x="0" y="9">+vlak</tspan></text><g transform="matrix(1 0 0 -1 553 389)"><rect fill="#FFFFFF" stroke="none" x="0" width="60" y="-11" height="11" /></g><text transform="matrix(1 0 0 1 553 389)" fill="#000000" stroke="none"><tspan dx="0 " x="0" y="9">«Relatierol»</tspan></text><g transform="matrix(1 0 0 -1 558 420)"><rect fill="#FFFFFF" stroke="none" x="0" width="17" y="-11" height="11" /></g><text transform="matrix(1 0 0 1 558 420)" fill="#000000" stroke="none"><tspan dx="0 " x="0" y="9">1..*</tspan></text><g transform="matrix(1 0 0 -1 582 415)"><rect fill="#FFFFFF" stroke="none" x="0" width="86" y="-11" height="11" /></g><text transform="matrix(1 0 0 1 582 415)" fill="#000000" stroke="none"><tspan dx="0 " x="0" y="9">beschrijft_vlakken</tspan></text><g transform="matrix(1 0 0 -1 664 722)"><rect fill="#FFFFFF" stroke="none" x="0" width="30" y="-11" height="11" /></g><text transform="matrix(1 0 0 1 664 722)" fill="#000000" stroke="none"><tspan dx="0 " x="0" y="9">omvat</tspan></text><g transform="matrix(1 0 0 -1 658 753)"><rect fill="#FFFFFF" stroke="none" x="0" width="100" y="-11" height="11" /></g><text transform="matrix(1 0 0 1 658 753)" fill="#000000" stroke="none"><tspan dx="0 " x="0" y="9">+landvormSubgroep</tspan></text><g transform="matrix(1 0 0 -1 676 766)"><rect fill="#FFFFFF" stroke="none" x="0" width="60" y="-11" height="11" /></g><text transform="matrix(1 0 0 1 676 766)" fill="#000000" stroke="none"><tspan dx="0 " x="0" y="9">«Relatierol»</tspan></text><g transform="matrix(1 0 0 -1 542 251)"><rect fill="#FFFFFF" stroke="none" x="0" width="73" y="-11" height="11" /></g><text transform="matrix(1 0 0 1 542 251)" fill="#000000" stroke="none"><tspan dx="0 " x="0" y="9">«ExternalLink»</tspan></text><g transform="matrix(1 0 0 -1 805 225)"><rect fill="#FFFFFF" stroke="none" x="0" width="94" y="-11" height="11" /></g><text transform="matrix(1 0 0 1 805 225)" fill="#000000" stroke="none"><tspan dx="0 " x="0" y="9">heeftDocumentatie</tspan></text><g transform="matrix(1 0 0 -1 785 125)"><rect fill="#FFFFFF" stroke="none" x="0" width="55" y="-11" height="11" /></g><text transform="matrix(1 0 0 1 785 125)" fill="#000000" stroke="none"><tspan dx="0 " x="0" y="9">+document</tspan></text><g transform="matrix(1 0 0 -1 784 138)"><rect fill="#FFFFFF" stroke="none" x="0" width="60" y="-11" height="11" /></g><text transform="matrix(1 0 0 1 784 138)" fill="#000000" stroke="none"><tspan dx="0 " x="0" y="9">«Relatierol»</tspan></text><g transform="matrix(1 0 0 -1 355 495)"><rect fill="#FFFFFF" stroke="none" x="0" width="166" y="-11" height="11" /></g><text transform="matrix(1 0 0 1 355 495)" fill="#000000" stroke="none"><tspan dx="0 " x="0" y="9">heeft_geomorfologische_eenheid</tspan></text><g transform="matrix(1 0 0 -1 295 513)"><rect fill="#FFFFFF" stroke="none" x="0" width="136" y="-11" height="11" /></g><text transform="matrix(1 0 0 1 295 513)" fill="#000000" stroke="none"><tspan dx="0 " x="0" y="9">+geomorfologischeEenheid</tspan></text><g transform="matrix(1 0 0 -1 330 526)"><rect fill="#FFFFFF" stroke="none" x="0" width="60" y="-11" height="11" /></g><text transform="matrix(1 0 0 1 330 526)" fill="#000000" stroke="none"><tspan dx="0 " x="0" y="9">«Relatierol»</tspan></text><g transform="matrix(1 0 0 -1 680 191)"><rect fill="#FFFFFF" stroke="none" x="0" width="94" y="-11" height="11" /></g><text transform="matrix(1 0 0 1 680 191)" fill="#000000" stroke="none"><tspan dx="0 " x="0" y="9">heeftDocumentatie</tspan></text><g transform="matrix(1 0 0 -1 665 127)"><rect fill="#FFFFFF" stroke="none" x="0" width="55" y="-11" height="11" /></g><text transform="matrix(1 0 0 1 665 127)" fill="#000000" stroke="none"><tspan dx="0 " x="0" y="9">+document</tspan></text><g transform="matrix(1 0 0 -1 664 140)"><rect fill="#FFFFFF" stroke="none" x="0" width="60" y="-11" height="11" /></g><text transform="matrix(1 0 0 1 664 140)" fill="#000000" stroke="none"><tspan dx="0 " x="0" y="9">«Relatierol»</tspan></text><g transform="matrix(1 0 0 -1 422 621)"><rect fill="#FFFFFF" stroke="none" x="0" width="25" y="-11" height="11" /></g><text transform="matrix(1 0 0 1 422 621)" fill="#000000" stroke="none"><tspan dx="0 " x="0" y="9">heeft</tspan></text><g transform="matrix(1 0 0 -1 371 642)"><rect fill="#FFFFFF" stroke="none" x="0" width="30" y="-11" height="11" /></g><text transform="matrix(1 0 0 1 371 642)" fill="#000000" stroke="none"><tspan dx="0 " x="0" y="9">+code</tspan></text><g transform="matrix(1 0 0 -1 371 655)"><rect fill="#FFFFFF" stroke="none" x="0" width="60" y="-11" height="11" /></g><text transform="matrix(1 0 0 1 371 655)" fill="#000000" stroke="none"><tspan dx="0 " x="0" y="9">«Relatierol»</tspan></text></g></g></g></g></svg>